<svg width="24" height="24" viewBox="0 0 24 24" fill="none" xmlns="http://www.w3.org/2000/svg">
<path d="M16.775 19.5751C16.5916 19.6918 16.4083 19.8001 16.225 19.9001C16.0416 20.0001 15.85 20.0918 15.65 20.1751C15.4 20.2918 15.1458 20.2918 14.8875 20.1751C14.6291 20.0584 14.45 19.8668 14.35 19.6001C14.25 19.3501 14.2625 19.1043 14.3875 18.8626C14.5125 18.6209 14.7 18.4418 14.95 18.3251C15.0666 18.2751 15.175 18.2209 15.275 18.1626C15.375 18.1043 15.475 18.0418 15.575 17.9751L12 14.8001V17.5751C12 18.0251 11.7958 18.3376 11.3875 18.5126C10.9791 18.6876 10.6166 18.6168 10.3 18.3001L6.99995 15.0001H3.99995C3.71662 15.0001 3.47912 14.9043 3.28745 14.7126C3.09578 14.5209 2.99995 14.2834 2.99995 14.0001V10.0001C2.99995 9.71676 3.09578 9.47926 3.28745 9.2876C3.47912 9.09593 3.71662 9.0001 3.99995 9.0001H6.19995L2.09995 4.9001C1.91662 4.71676 1.82495 4.48343 1.82495 4.2001C1.82495 3.91676 1.91662 3.68343 2.09995 3.5001C2.28328 3.31676 2.51662 3.2251 2.79995 3.2251C3.08328 3.2251 3.31662 3.31676 3.49995 3.5001L20.5 20.5001C20.6833 20.6834 20.775 20.9168 20.775 21.2001C20.775 21.4834 20.6833 21.7168 20.5 21.9001C20.3166 22.0834 20.0833 22.1751 19.8 22.1751C19.5166 22.1751 19.2833 22.0834 19.1 21.9001L16.775 19.5751ZM19 11.9751C19 10.5918 18.6333 9.32926 17.9 8.1876C17.1666 7.04593 16.1833 6.19176 14.95 5.6251C14.7 5.50843 14.5166 5.32926 14.4 5.0876C14.2833 4.84593 14.2666 4.6001 14.35 4.3501C14.45 4.08343 14.6291 3.89176 14.8875 3.7751C15.1458 3.65843 15.4083 3.65843 15.675 3.7751C17.2916 4.49176 18.5833 5.58343 19.55 7.0501C20.5166 8.51676 21 10.1584 21 11.9751C21 12.5251 20.95 13.0709 20.85 13.6126C20.75 14.1543 20.6083 14.6751 20.425 15.1751C20.2916 15.5418 20.0875 15.7709 19.8125 15.8626C19.5375 15.9543 19.2833 15.9584 19.05 15.8751C18.8166 15.7918 18.6291 15.6418 18.4875 15.4251C18.3458 15.2084 18.3416 14.9584 18.475 14.6751C18.6583 14.2418 18.7916 13.8043 18.875 13.3626C18.9583 12.9209 19 12.4584 19 11.9751ZM14.775 8.4251C15.325 8.7751 15.75 9.3001 16.05 10.0001C16.35 10.7001 16.5 11.3668 16.5 12.0001V12.2501C16.5 12.3334 16.4916 12.4168 16.475 12.5001C16.4416 12.7168 16.325 12.8584 16.125 12.9251C15.925 12.9918 15.7416 12.9418 15.575 12.7751L14.3 11.5001C14.2 11.4001 14.125 11.2876 14.075 11.1626C14.025 11.0376 14 10.9084 14 10.7751V8.8501C14 8.6501 14.0875 8.50426 14.2625 8.4126C14.4375 8.32093 14.6083 8.3251 14.775 8.4251ZM9.74995 6.9501C9.64995 6.8501 9.59995 6.73343 9.59995 6.6001C9.59995 6.46676 9.64995 6.3501 9.74995 6.2501L10.3 5.7001C10.6166 5.38343 10.9791 5.3126 11.3875 5.4876C11.7958 5.6626 12 5.9751 12 6.4251V8.0001C12 8.23343 11.9 8.39176 11.7 8.4751C11.5 8.55843 11.3166 8.51676 11.15 8.3501L9.74995 6.9501ZM9.99995 15.1501V12.8001L8.19995 11.0001H4.99995V13.0001H7.84995L9.99995 15.1501Z" fill="#433C2A"/>
</svg>
