<svg width="100" height="99" viewBox="0 0 100 99" fill="none" xmlns="http://www.w3.org/2000/svg">
<path d="M0.477246 96.7087C1.17579 87.7182 0.881665 78.6044 0.969639 69.5916C1.01297 65.2323 1.06155 60.873 1.15084 56.5149C1.1968 54.2486 1.25326 51.9836 1.32548 49.7186C1.39113 47.6532 1.07206 44.9759 1.5894 42.9932C1.90059 41.7996 1.33335 42.1752 2.3142 42.4693C2.91295 42.6492 4.61073 44.2248 4.92586 44.4703C6.14437 45.421 7.35237 46.3848 8.55381 47.3591C11.4215 49.6858 14.2446 52.0677 17.0282 54.4955C22.2345 59.0373 27.1374 63.8352 32.0364 68.6987C32.3883 69.048 32.8859 68.5293 32.5734 68.1617C28.029 62.8136 22.5352 58.1392 17.2462 53.5514C12.1424 49.1238 6.91513 44.8236 1.47385 40.8161C1.20336 40.6166 0.863284 40.891 0.84884 41.1746C0.395838 50.4329 0.247461 59.7017 0.196252 68.9692C0.145044 78.1974 -0.188471 87.4885 0.150296 96.71C0.156861 96.9214 0.460176 96.9175 0.477246 96.7087Z" fill="#0D0628"/>
<path d="M96.6025 96.7086C96.9492 87.8009 96.3911 78.8078 96.2349 69.8962C96.0668 60.3227 95.9342 50.748 95.9053 41.1732C95.904 40.8831 95.5403 40.6178 95.2764 40.8122C85.6819 47.9328 76.7138 56.6199 69.0049 65.7469C68.6937 66.1146 69.1913 66.6346 69.5419 66.284C74.7744 61.0462 79.68 55.5196 85.1015 50.4644C87.7263 48.0168 90.422 45.6402 93.2372 43.4133C95.6506 41.5041 94.6422 41.8376 95.0794 43.0955C95.3788 43.9556 95.0925 45.3106 95.0991 46.2547C95.1148 48.3057 95.1332 50.358 95.1569 52.409C95.3249 67.1099 95.0702 82.0524 96.2743 96.7099C96.2913 96.9174 96.5946 96.9227 96.6025 96.7086Z" fill="#0D0628"/>
<path d="M1.94751 42.414C9.6236 34.9073 17.3653 27.4728 25.2857 20.2221C29.3509 16.501 33.4515 12.8178 37.5837 9.17281C39.3957 7.57483 41.2156 5.98472 43.0433 4.40644C45.4029 2.36859 47.9909 0.225677 51.1015 2.38958C63.6989 11.1581 74.9662 22.0945 86.0575 32.6515C89.1222 35.5691 92.1737 38.5011 95.1793 41.4804C95.5784 41.8756 96.1956 41.2598 95.7964 40.8633C87.2563 32.3954 78.476 24.1429 69.4619 16.1832C63.6451 11.0465 57.7219 5.83767 51.2775 1.48754C50.1377 0.718095 48.9901 -0.222069 47.551 0.0471064C45.6287 0.406882 43.8653 2.61152 42.4643 3.82609C38.168 7.55252 33.9176 11.3328 29.7159 15.1656C20.1398 23.8973 10.6202 32.7604 1.73086 42.196C1.5943 42.3404 1.8057 42.5532 1.94751 42.414Z" fill="#0D0628"/>
<path d="M20.1583 38.9396C18.5931 37.2812 15.8869 36.6076 13.3961 37.2576C10.9827 37.8865 11.1836 40.5402 12.066 41.974C13.1873 43.7939 15.1267 44.9612 16.9978 45.8777C18.8518 46.7864 23.6969 47.5584 23.6969 47.5584C23.6969 47.5584 26.8312 43.1886 27.6374 41.0851C29.5781 36.0154 27.0872 29.2453 22.464 33.216C20.7321 34.7037 20.2003 36.8912 20.1583 38.9396Z" fill="#FBFBFB"/>
<path d="M20.4118 38.6862C17.7148 35.7988 9.44257 35.2001 10.9224 41.0602C12.2039 46.1312 19.1723 47.5598 23.5027 48.2649C23.852 48.3214 24.1277 48.2189 24.3312 47.9274C27.0506 44.0342 30.5682 38.3303 27.9329 33.5128C27.0217 31.8478 25.4486 31.1191 23.6511 31.8479C20.8123 32.9981 19.7211 36.1179 19.7119 38.9396C19.7106 39.5265 20.5431 39.4976 20.6048 38.9396C20.8727 36.5065 23.0484 30.4337 26.4964 33.1556C28.0826 34.4083 27.9841 37.6857 27.6217 39.3952C27.0611 42.0358 25.0442 45.0991 23.1771 47.0385C23.5132 46.6906 24.0581 47.1081 23.3176 46.7509C22.8409 46.5211 22.1109 46.5304 21.5883 46.4214C20.0087 46.0944 18.4278 45.7425 16.9676 45.0387C15.0572 44.117 12.1501 42.3496 12.2407 39.9362C12.389 35.955 18.1363 37.8524 19.9772 39.2482C20.3133 39.5042 20.6783 38.9711 20.4118 38.6862Z" fill="#0D0628"/>
<path d="M38.4885 19.8584C37.7584 18.2788 35.9622 17.1351 34.0031 17.0025C32.1045 16.8725 31.6055 18.842 31.897 20.0934C32.2673 21.6822 33.3873 22.9965 34.5205 24.1139C35.6418 25.2208 38.9612 26.9541 38.9612 26.9541C38.9612 26.9541 42.2885 24.5512 43.3822 23.2237C46.0162 20.0251 45.8534 14.5208 41.5453 16.275C39.9302 16.9316 39.015 18.3851 38.4885 19.8584Z" fill="#FBFBFB"/>
<path d="M38.8352 19.7625C37.6049 16.7977 31.5819 14.3633 31.1368 19.0889C30.7521 23.1765 35.5434 25.9825 38.5923 27.5857C38.8089 27.6999 39.1201 27.7406 39.3329 27.5857C42.2938 25.4179 46.1358 22.084 45.5646 17.9676C45.3414 16.3617 44.2647 15.2758 42.5774 15.4688C40.2599 15.7341 38.7183 17.638 38.0592 19.7376C37.9108 20.2116 38.654 20.5425 38.8746 20.0816C39.5771 18.6123 40.9991 16.1582 43.0238 16.4366C44.9383 16.6992 44.7965 18.846 44.3868 20.2904C43.5714 23.166 41.3103 24.0286 39.3132 25.8735C39.1779 25.9982 38.8234 26.1899 38.6409 26.2831C39.3801 25.901 39.3486 26.5077 38.7092 25.9825C37.9016 25.3194 36.8105 24.932 35.9504 24.3149C34.6361 23.3734 32.7387 21.5916 32.5851 19.9004C32.459 18.5033 33.7878 17.4332 35.118 17.7982C36.4061 18.1514 37.4132 18.9602 38.1774 20.0369C38.394 20.3429 39.002 20.167 38.8352 19.7625Z" fill="#0D0628"/>
<path d="M68.1358 34.336C68.4838 30.888 66.807 27.3256 63.9459 25.4362C61.174 23.6058 58.5939 26.719 57.8822 29.2086C56.9775 32.3691 57.4686 35.6714 58.1593 38.6297C58.8434 41.5591 62.2967 47.4626 62.2967 47.4626C62.2967 47.4626 69.5854 45.9552 72.4768 44.4938C79.4451 40.9735 84.2863 30.9654 76.1034 30.4822C73.0387 30.301 70.2997 32.1393 68.1358 34.336Z" fill="#FBFBFB"/>
<path d="M68.4945 34.336C69.1366 28.3695 61.8807 19.4645 57.7249 27.7104C54.4475 34.2126 58.3762 42.1789 61.6627 47.8315C61.8347 48.1257 62.1709 48.236 62.4913 48.169C69.4084 46.7168 77.1764 44.2233 80.1794 37.1407C81.1287 34.9019 81.3125 32.1117 78.9608 30.712C75.1031 28.4155 70.4759 31.253 67.8196 34.0209C67.4191 34.4385 68.0245 35.0333 68.4512 34.6525C70.8423 32.5122 76.1483 28.8357 79.1867 32.138C80.9921 34.101 79.1539 37.4257 77.917 39.1602C74.6435 43.7454 69.6881 45.2291 64.4333 46.3202C63.7584 46.4607 63.0467 46.6537 62.3573 46.7076C62.7066 46.68 62.8064 47.4639 62.4939 46.3255C61.9056 44.1891 60.1593 42.108 59.3715 39.9953C58.1149 36.6221 57.4321 32.1117 58.8489 28.7175C59.5592 27.0132 59.9151 26.7781 61.8216 26.3619C64.0078 25.8866 64.8639 26.5628 66.0667 28.3604C67.2603 30.1422 67.7527 32.2128 67.7776 34.3347C67.7829 34.8087 68.4473 34.7864 68.4945 34.336Z" fill="#0D0628"/>
<path d="M54.3119 50.0218C53.9416 45.0886 50.6971 40.4995 46.2051 38.5562C41.8537 36.6733 39.0031 41.6918 38.621 45.3684C38.1365 50.0362 39.6491 54.5557 41.3574 58.5408C43.0486 62.4866 49.3735 69.925 49.3735 69.925C49.3735 69.925 59.2424 65.9898 62.9439 63.2153C71.8621 56.5319 76.1729 41.2572 64.5511 42.6175C60.1983 43.1283 56.8067 46.3938 54.3119 50.0218Z" fill="#FBFBFB"/>
<path d="M54.6719 50.0218C54.3213 44.9902 51.2908 39.9219 46.443 37.993C42.274 36.3346 39.1634 39.9888 38.197 43.7547C35.6628 53.6275 42.8833 63.3926 48.8564 70.4437C49.0074 70.6223 49.3488 70.7208 49.5707 70.6328C58.8224 66.9274 68.6913 61.9811 71.5669 51.5936C72.4899 48.2584 72.4151 43.9043 68.6414 42.4679C62.6906 40.2028 56.9723 45.2686 53.9287 49.7973C53.6017 50.2831 54.362 50.6941 54.6994 50.2477C57.6118 46.3926 63.8448 40.4235 69.1298 43.8059C72.5254 45.979 70.9287 51.2377 69.596 54.1422C66.0468 61.8721 58.9642 65.3806 51.4391 68.3599C50.9664 68.5476 50.2928 68.6606 49.8792 68.9521C49.2608 69.3867 48.9877 68.8365 49.8608 69.3657C49.1964 68.9626 48.5229 67.7454 48.062 67.1676C45.3728 63.797 42.7914 60.3647 41.2394 56.3113C39.4444 51.6251 37.3475 43.7153 41.909 39.826C44.6901 37.456 48.2419 40.0019 50.2508 42.1383C52.332 44.3521 53.5138 47.1423 53.9707 50.1177C54.0272 50.5155 54.6994 50.4236 54.6719 50.0218Z" fill="#0D0628"/>
<path d="M66.9459 9.84388C67.4029 5.48981 61.3182 -0.684122 59.3408 5.88638C58.6711 8.11199 59.0361 10.4807 59.5495 12.6092C60.0577 14.7166 62.6208 19.026 62.6208 19.026C62.6208 19.026 68.024 18.166 70.1682 17.2101C75.3337 14.907 78.9183 7.91632 72.852 7.3307C70.5791 7.11273 68.5492 8.34175 66.9459 9.84388Z" fill="#FBFBFB"/>
<path d="M67.3041 9.8438C67.7085 6.67541 63.8206 -0.152425 60.0823 3.17353C57.5823 5.39783 58.0405 9.96985 58.8415 12.8034C59.5006 15.1354 60.7612 17.3203 61.9862 19.3963C62.1661 19.7009 62.4878 19.7862 62.8148 19.7337C67.786 18.9301 73.7538 17.3032 75.9834 12.2454C76.783 10.4321 76.7502 8.3732 74.8305 7.33852C71.9707 5.797 68.6881 7.50921 66.6279 9.52868C66.2077 9.94098 66.8209 10.5082 67.2594 10.1602C68.9848 8.78942 75.4397 5.6867 75.5356 10.2193C75.5829 12.4279 73.3152 14.6798 71.6332 15.8248C68.9402 17.6591 65.5446 17.8153 62.4235 18.3196C62.6992 18.4325 62.9763 18.5441 63.252 18.657C61.461 15.6239 59.7304 12.4226 59.7107 8.79731C59.6963 6.03071 61.1104 1.93532 64.2329 4.7006C65.6641 5.96769 66.5136 7.95564 66.5832 9.8438C66.6029 10.3178 67.2463 10.2916 67.3041 9.8438Z" fill="#0D0628"/>
<path d="M92.9622 32.1527C94.6468 29.197 92.244 22.9049 88.7867 26.9622C87.6155 28.3369 87.1362 30.1358 86.8368 31.8113C86.5414 33.4696 87.018 37.3366 87.018 37.3366C87.018 37.3366 91.1305 38.412 92.9543 38.4015C97.3491 38.3752 102.083 34.5201 97.9478 32.2104C96.3997 31.3438 94.572 31.5841 92.9622 32.1527Z" fill="#FBFBFB"/>
<path d="M93.2719 32.3337C94.7005 30.0687 93.9114 23.7923 90.0392 25.1605C85.5407 26.7506 85.8388 33.6284 86.2839 37.3365C86.322 37.6581 86.4848 37.9562 86.8222 38.0442C90.6616 39.0369 95.6682 39.6947 98.813 36.6839C99.8753 35.6662 100.456 34.2376 99.5588 32.9259C98.0698 30.7489 94.996 30.8867 92.8439 31.7245C92.3186 31.928 92.5117 32.7237 93.0815 32.5845C95.0695 32.0987 100.144 32.0461 98.6817 35.3629C97.9858 36.9399 95.0629 37.7671 93.5844 37.8787C91.3982 38.0429 89.2908 37.1684 87.2135 36.6313C87.3934 36.8677 87.572 37.1027 87.7519 37.3391C87.4341 34.6946 87.2266 32.016 88.1917 29.4726C88.8693 27.6868 91.0686 24.7666 92.4775 27.6094C93.1472 28.9592 93.1236 30.6727 92.6154 32.0606C92.471 32.4519 93.0618 32.6659 93.2719 32.3337Z" fill="#0D0628"/>
<path d="M3.24488 95.121C18.5669 81.6938 33.8888 68.2665 49.2108 54.8393C50.0223 54.1276 50.944 53.3739 52.0233 53.3989C53.0094 53.4212 53.8459 54.0908 54.5982 54.7303C71.0048 68.6788 82.0725 81.0123 96.3532 97.13C84.9533 96.1596 16.2953 97.6276 0.759277 98.2461" fill="#FBFBFB"/>
<path d="M3.48779 95.364C11.8138 88.0923 20.1412 80.8206 28.4672 73.5503C32.5495 69.9854 36.6318 66.4231 40.7101 62.8555C42.8307 61.0002 44.9513 59.1448 47.0718 57.2895C48.0015 56.4754 49.5443 54.5295 50.7365 54.2222C52.6103 53.7403 54.8385 55.5103 56.1174 56.6172C70.5597 69.1174 83.3711 83.1894 96.0144 97.4675C96.126 97.197 96.239 96.9252 96.3519 96.6534C85.5192 95.7697 74.4581 96.3107 63.6071 96.4302C48.3534 96.5983 33.0944 96.8412 17.846 97.2771C12.1487 97.4399 6.44741 97.6198 0.759278 97.9743C0.412633 97.9953 0.406067 98.5232 0.759278 98.5179C27.6426 98.082 54.5247 97.2469 81.4146 97.2902C86.3819 97.2981 91.3978 97.2062 96.3532 97.6067C96.7944 97.6421 96.9414 97.0762 96.6907 96.7939C89.7433 88.9615 82.7868 81.1292 75.477 73.6304C71.9134 69.9762 68.2644 66.4047 64.5209 62.9356C62.5527 61.1118 60.5595 59.3169 58.5413 57.5482C56.9945 56.1931 55.1432 53.8821 53.1329 53.2099C49.8358 52.1069 46.5873 56.5634 44.5048 58.3898C39.9446 62.3933 35.387 66.3981 30.8294 70.4056C21.554 78.5635 12.2787 86.7202 3.00328 94.8782C2.66845 95.171 3.15559 95.6542 3.48779 95.364Z" fill="#0D0628"/>
</svg>
