<svg width="220" height="38" viewBox="0 0 220 38" fill="none" xmlns="http://www.w3.org/2000/svg">
<path d="M103.856 15.8932C102.485 18.6885 103.335 21.8913 106.223 23.3109C107.763 24.0685 109.965 23.634 109.381 25.9826C108.914 27.8648 107.279 28.5893 105.486 28.5502C102.05 28.4731 98.0032 25.7806 97.9187 22.0687C97.8331 18.2368 100.915 16.9175 104.125 16.2395C104.34 16.1942 104.356 15.8198 104.125 15.7879C100.781 15.3192 97.8184 17.5686 97.2163 20.8546C96.5799 24.3255 99.1817 27.3276 102.232 28.582C104.683 29.5905 108.384 29.8805 109.8 27.1061C110.209 26.3044 110.775 24.126 110.041 23.3807C109.526 22.8581 108.124 23.1702 107.47 22.9866C104.321 22.103 103.164 18.9687 104.295 16.078C104.392 15.8271 103.976 15.6509 103.856 15.8932Z" fill="#FBFBFB"/>
<path d="M107.594 23.5397C109.83 22.1335 110.104 18.9687 109.302 16.696C109.244 16.532 108.97 16.0878 108.994 15.9238C109.079 15.3596 110.306 14.9961 110.788 15.0254C112.305 15.1172 113.303 16.51 113.634 17.8635C114.257 20.4177 112.6 23.3917 109.853 23.6169C109.44 23.6511 109.434 24.2973 109.853 24.2667C112.957 24.0464 114.879 20.917 114.281 17.9688C113.687 15.0254 110.811 13.4051 108.359 15.4612C108.26 15.5444 108.266 15.6912 108.316 15.7965C109.583 18.4902 109.282 20.9819 107.379 23.2619C107.259 23.4076 107.413 23.6548 107.594 23.5397Z" fill="#FBFBFB"/>
<path d="M103.664 15.898C105.28 16.0657 108.002 16.3349 109.119 17.757C109.289 17.9737 109.595 17.6677 109.423 17.4523C108.883 16.7755 107.927 16.4781 107.135 16.2174C105.986 15.8405 104.879 15.6483 103.663 15.7157C103.546 15.723 103.549 15.8858 103.664 15.898Z" fill="#FBFBFB"/>
<path d="M108.664 15.5945C107.581 13.0661 104.546 8.96864 101.304 9.66134C98.1169 10.3442 97.6029 15.5285 98.4314 18.0349C98.566 18.4412 99.1988 18.2735 99.0764 17.8574C98.3714 15.455 99.0788 9.68093 102.67 10.3687C105.126 10.8387 107.232 13.7184 108.449 15.7194C108.534 15.8614 108.725 15.7377 108.664 15.5945Z" fill="#FBFBFB"/>
<path d="M107.11 29.4215C109.296 30.9501 112.239 30.1191 113.966 28.2613C115.69 26.406 116.061 22.7895 113.713 21.212C113.579 21.1226 113.36 21.2744 113.425 21.4335C113.89 22.579 114.698 23.4479 114.727 24.7697C114.754 25.9642 114.218 27.0779 113.403 27.9309C111.867 29.5378 109.302 30.2574 107.318 29.0666C107.087 28.9271 106.896 29.271 107.11 29.4215Z" fill="#FBFBFB"/>
<path d="M104.591 10.6049C107.006 9.70539 109.499 9.4594 111.794 10.8583C114.433 12.4676 115.281 15.5419 113.855 18.2221C113.751 18.4192 113.999 18.6138 114.164 18.4596C116.395 16.3668 115.132 12.7026 113.111 10.9354C110.746 8.86708 107.09 8.60885 104.464 10.2978C104.311 10.3969 104.405 10.6747 104.591 10.6049Z" fill="#FBFBFB"/>
<path d="M112.349 10.7199C116.579 11.0528 119.249 13.1211 120.232 17.325C121.183 21.3967 119.881 27.0778 114.614 26.8955C114.163 26.8796 114.213 27.6102 114.701 27.5343C119.402 26.7964 121.731 23.257 121.135 18.5905C120.491 13.5494 117.623 10.2304 112.349 10.5009C112.207 10.507 112.209 10.7089 112.349 10.7199Z" fill="#FBFBFB"/>
<path d="M99.8451 27.0069C98.8966 32.1299 102.505 36.3289 107.586 37.133C110.344 37.5699 113.361 36.8013 115.363 34.7905C117.466 32.677 117.626 29.9478 117.353 27.1354C117.295 26.5284 116.339 26.5223 116.398 27.1354C116.612 29.3946 116.582 31.4948 115.218 33.3917C113.542 35.7232 110.478 36.6214 107.732 36.2127C105.781 35.9226 103.93 35.0378 102.513 33.6402C100.657 31.8081 100.37 29.5476 100.202 27.0546C100.189 26.8649 99.8843 26.794 99.8451 27.0069Z" fill="#FBFBFB"/>
<path d="M98.2613 14.1123C93.514 15.1551 90.0824 18.8254 90.7139 23.8493C90.9782 25.958 91.9426 28.0275 93.5067 29.4888C95.5701 31.4163 97.7436 31.4763 100.403 30.9928C100.862 30.9096 100.669 30.2072 100.21 30.2928C95.176 31.2254 91.3735 27.7778 91.3197 22.7197C91.2695 18.0275 94.6155 16.2137 98.4339 14.5236C98.6762 14.4146 98.4975 14.0597 98.2613 14.1123Z" fill="#FBFBFB"/>
<path d="M92.8336 17.5404C91.2781 12.6132 92.5729 8.00909 97.8477 6.26633C101.801 4.96049 106.284 5.61892 108.166 9.68576C108.362 10.1092 108.99 9.74081 108.794 9.31859C106.621 4.65941 101.043 4.04259 96.6789 5.95301C91.5853 8.18286 90.7029 12.7649 92.3735 17.6677C92.4714 17.9565 92.9266 17.8366 92.8336 17.5404Z" fill="#FBFBFB"/>
<path d="M99.1339 5.61642C101.022 1.46146 106.456 0.0381128 110.681 1.19342C115.28 2.45031 117.772 7.30041 117.08 11.765C117.042 12.0049 117.402 12.2215 117.517 11.9498C119.36 7.60883 115.93 2.40626 111.861 0.750392C107.359 -1.08048 100.353 0.417525 98.7925 5.47446C98.7325 5.66905 99.0458 5.81101 99.1339 5.61642Z" fill="#FBFBFB"/>
<path d="M117.593 7.96384C123.192 8.36771 126.338 13.7991 125.779 19.0311C125.289 23.6278 122.176 29.3383 116.893 29.0005C116.657 28.9858 116.62 29.3408 116.838 29.4044C122.481 31.0407 126.131 23.6266 126.581 19.0886C127.11 13.7563 123.665 7.16711 117.593 7.67745C117.41 7.69214 117.407 7.95038 117.593 7.96384Z" fill="#FBFBFB"/>
<path d="M105.425 21.9291C104.758 19.7433 107.095 17.9601 109.127 17.9883C109.551 17.9944 109.551 17.3348 109.127 17.3286C106.77 17.2944 103.978 19.5218 104.982 22.0502C105.089 22.3183 105.514 22.2179 105.425 21.9291Z" fill="#FBFBFB"/>
<path d="M106.016 18.8084C106.022 19.561 106.358 20.2525 106.975 20.7004C107.259 20.906 107.589 21.0517 107.936 21.1141C108.374 21.1936 108.575 21.0615 108.98 20.9366C109.446 20.7922 108.992 20.1436 108.711 20.4728C108.385 20.8522 107.471 20.3883 107.197 20.1595C106.766 19.8021 106.542 19.2844 106.393 18.757C106.333 18.5526 106.014 18.5905 106.016 18.8084Z" fill="#FBFBFB"/>
<path d="M15.0461 18.8452C24.1442 25.1615 36.3643 24.5961 46.8563 22.9647C61.4311 20.6969 76.8907 12.3699 91.4545 19.1439C92.0309 19.4119 92.5364 18.5552 91.9563 18.2847C79.2968 12.3968 65.8516 17.7438 53.2411 20.8548C41.3649 23.7834 25.9959 25.6939 15.215 18.5564C15.0339 18.4365 14.8711 18.7228 15.0461 18.8452Z" fill="#FBFBFB"/>
<path d="M84.8222 16.4049C77.1353 12.3442 67.998 12.5057 60.338 8.16717C57.9931 6.8393 56.1206 4.42956 60.5155 4.19214C63.4796 4.03181 66.7558 5.31562 69.463 6.36935C75.4464 8.69588 80.1056 12.1386 84.5041 16.7953C84.7819 17.089 85.2004 16.6558 84.9434 16.3559C80.2549 10.8756 74.3327 7.31661 67.5464 5.06229C66.2173 4.62048 56.3164 1.6649 57.0153 5.88105C57.4864 8.73261 63.4062 10.446 65.6348 11.2892C71.8299 13.6353 78.457 14.4015 84.6717 16.7647C84.8798 16.843 85.0168 16.5089 84.8222 16.4049Z" fill="#FBFBFB"/>
<path d="M83.2755 15.9986C77.3594 16.4416 71.3992 17.7903 66.0033 20.2967C63.82 21.3113 57.0276 24.7638 59.1841 28.2627C61.0933 31.3591 66.1636 27.7646 67.888 26.5702C73.06 22.9868 77.6237 19.0129 83.4015 16.3767C83.6585 16.2593 83.4762 15.8395 83.2106 15.9227C79.588 17.0548 76.4439 19.3225 73.4455 21.5879C70.4532 23.8483 66.9457 27.4783 63.2546 28.5014C61.6342 28.9506 59.5206 28.882 59.6675 26.2569C59.7458 24.8592 62.0001 23.1752 62.9829 22.5229C64.9459 21.222 67.1501 20.2392 69.3542 19.4376C73.8396 17.805 78.5612 16.9581 83.2779 16.3254C83.4762 16.2972 83.4896 15.9827 83.2755 15.9986Z" fill="#FBFBFB"/>
<path d="M66.9922 17.3033C63.164 16.0182 59.6454 14.3159 56.2064 12.2108C53.7624 10.7153 51.4139 8.93095 48.7924 7.75483C46.9639 6.93485 42.8041 5.29123 41.7406 8.03386C40.0994 12.2684 47.0631 15.0098 49.9122 15.8738C55.149 17.4612 61.5326 18.4892 66.9885 17.6863C67.21 17.6533 67.1427 17.3204 66.9371 17.3106C62.5472 17.1087 58.2429 17.012 53.9056 16.1639C51.9829 15.7882 50.0566 15.3243 48.2282 14.6108C46.6788 14.0062 45.0009 13.2168 43.7954 12.0395C42.1885 10.4705 41.8838 7.05968 44.7011 7.22123C48.1523 7.41949 51.2878 9.94307 54.0782 11.6846C58.0814 14.1849 62.2216 16.6815 66.8845 17.6998C67.1415 17.7561 67.2431 17.3877 66.9922 17.3033Z" fill="#FBFBFB"/>
<path d="M51.3035 21.4472C48.7114 20.3482 46.1597 19.1464 43.7426 17.6974C40.5239 15.7662 38.004 13.2548 35.2283 10.7802C33.3656 9.11944 29.3061 6.39762 28.6954 10.7141C28.0811 15.0551 33.6018 18.3999 36.8793 19.8428C41.0453 21.6761 46.7288 22.5291 51.2583 21.9184C51.5826 21.8744 51.4786 21.3909 51.1848 21.3738C47.4595 21.1572 43.7671 21.0972 40.1225 20.161C36.7104 19.2847 28.0566 15.4932 29.3465 10.7778C30.5532 6.36703 34.9689 11.3554 36.626 12.9232C38.0383 14.2596 39.4494 15.5679 41.0404 16.6902C44.1184 18.8625 47.5843 20.5918 51.1224 21.8768C51.3696 21.9649 51.5483 21.5513 51.3035 21.4472Z" fill="#FBFBFB"/>
<path d="M34.3339 23.5009C28.1363 20.1671 24.9959 14.5839 20.1055 9.85618C18.7862 8.58094 15.3435 5.22637 13.5175 7.33873C11.0722 10.1683 15.0448 15.1824 17.0948 16.8493C21.7601 20.6444 28.3505 22.851 34.1968 23.8484C34.471 23.8949 34.5909 23.5033 34.3143 23.425C29.5805 22.0824 24.8417 20.7986 20.5265 18.3546C18.4288 17.1662 16.3813 15.7429 15.0302 13.7003C14.3436 12.6625 12.0269 7.8136 14.8833 7.3106C15.5931 7.18577 16.7105 7.97638 17.2784 8.33007C20.5595 10.3751 22.7282 13.9402 25.2113 16.7978C27.73 19.6971 30.5828 22.3908 34.214 23.7884C34.3804 23.8545 34.4893 23.5853 34.3339 23.5009Z" fill="#FBFBFB"/>
<path d="M57.1841 20.1487C54.3583 20.8586 51.869 22.8327 49.2328 24.0651C46.325 25.4235 43.1332 26.9227 39.9977 27.6889C37.9171 28.1968 32.9263 29.1196 35.0962 32.4741C37.3248 35.9192 42.5714 33.9036 45.1317 32.2208C49.6624 29.2419 54.5296 25.016 57.4913 20.4608C57.6774 20.1745 57.2319 19.8183 57.0104 20.09C54.384 23.3209 51.4198 26.0648 48.2635 28.7683C46.6493 30.1525 45.0154 31.5513 43.1038 32.5157C41.8628 33.1423 40.3526 33.6747 38.9305 33.5645C37.6246 33.463 33.2518 31.9723 36.5636 29.319C37.6442 28.4538 39.7664 28.537 41.0771 28.1307C42.7954 27.5971 44.4806 26.8309 46.1402 26.1358C50.0295 24.5081 53.5689 22.3615 57.3077 20.4462C57.4766 20.3593 57.3592 20.1047 57.1841 20.1487Z" fill="#FBFBFB"/>
<path d="M37.4498 23.5852C31.2351 24.8703 24.6593 24.9939 18.556 26.7391C17.0544 27.1687 10.5447 29.4976 12.9019 32.1779C14.3974 33.879 20.1164 32.2488 21.8298 31.8633C27.4277 30.6052 33.6069 28.0951 37.6786 23.9389C37.8757 23.7382 37.6064 23.349 37.3653 23.5338C31.2485 28.2162 23.3351 32.2623 15.3801 32.1509C14.0804 32.1326 12.2667 32.1326 14.0878 29.5282C14.8172 28.4867 17.0605 27.8748 18.2341 27.504C20.5044 26.7868 22.8787 26.4368 25.2333 26.1418C29.31 25.6327 33.7134 25.536 37.5428 23.9279C37.7496 23.8398 37.6798 23.5375 37.4498 23.5852Z" fill="#FBFBFB"/>
<path d="M23.4772 22.3125C18.7899 21.6443 14.2103 20.2222 9.5205 19.6421C7.43874 19.3851 3.3058 19.062 2.61678 21.7875C1.87023 24.7394 5.0657 25.4578 7.24659 25.3513C12.6181 25.0907 18.4852 24.7456 23.5029 22.7262C23.8089 22.6026 23.7 22.1326 23.3634 22.2195C18.9551 23.3565 14.7439 23.9072 10.2242 24.3417C9.02239 24.4567 7.82915 24.7088 6.61754 24.7002C5.69232 24.6929 4.44032 24.6476 3.75007 23.9231C1.71726 21.7912 4.16006 20.6542 5.43775 20.3054C8.06902 19.587 11.1604 20.5318 13.7317 21.0642C16.9382 21.7288 20.1594 22.4227 23.4332 22.6405C23.6192 22.654 23.6657 22.3395 23.4772 22.3125Z" fill="#FBFBFB"/>
<path d="M15.1745 18.5442C11.4038 17.4856 8.38462 15.5018 5.31399 13.1397C4.0106 12.1374 2.67782 11.1718 1.75136 9.79249C1.41725 9.29561 0.560571 8.06688 0.834713 7.37173C1.80767 4.89711 4.58581 7.48435 5.35928 8.21376C8.83133 11.4827 11.41 15.6633 14.8784 18.9542C15.2174 19.2761 15.6824 18.7951 15.385 18.4476C12.963 15.6046 10.4027 12.8778 7.98197 10.0312C6.87316 8.72653 2.89812 3.68919 0.629108 5.80644C-1.19197 7.50514 1.40257 10.7202 2.58236 11.8106C6.07399 15.0404 10.3991 17.8736 15.0889 18.8575C15.2908 18.8991 15.3777 18.6005 15.1745 18.5442Z" fill="#FBFBFB"/>
<path d="M203.696 18.5563C192.958 25.6081 177.713 23.8188 165.874 20.9868C152.964 17.8978 139.226 12.3085 126.26 18.2858C125.68 18.5538 126.185 19.4105 126.762 19.1449C141.628 12.2926 157.434 20.8645 172.328 23.0478C182.77 24.5776 194.812 25.0806 203.866 18.8475C204.04 18.7239 203.877 18.4363 203.696 18.5563Z" fill="#FBFBFB"/>
<path d="M133.607 16.7634C139.796 14.4307 146.385 13.6732 152.563 11.3834C154.848 10.5365 161.027 8.79737 161.513 5.87972C162.194 1.78963 152.765 4.47107 151.418 4.8933C144.378 7.10357 138.198 10.7225 133.337 16.3546C133.078 16.6544 133.497 17.0865 133.776 16.794C138.067 12.2914 142.631 8.85854 148.438 6.57362C151.297 5.44891 154.443 4.26916 157.561 4.21531C159.28 4.18594 161.896 4.70237 160.296 6.70091C159.8 7.32017 158.845 7.78402 158.164 8.16831C150.428 12.5117 141.222 12.3416 133.457 16.406C133.263 16.5064 133.398 16.8429 133.607 16.7634Z" fill="#FBFBFB"/>
<path d="M135.017 16.324C139.61 16.9359 144.207 17.7449 148.597 19.2686C150.918 20.0751 153.246 21.0664 155.318 22.409C156.192 22.9756 157.142 23.6059 157.839 24.3867C159.78 26.5603 158.695 29.0361 155.802 28.6286C152.129 28.1096 148.17 24.0281 145.314 21.8717C142.174 19.5011 138.883 17.0987 135.084 15.9213C134.821 15.8393 134.633 16.2579 134.893 16.3754C140.714 19.0066 145.333 22.9817 150.548 26.5688C152.467 27.8893 157.443 31.4397 159.352 28.0325C161.346 24.4736 154.694 21.3283 152.447 20.2966C146.992 17.7926 140.988 16.4415 135.019 15.9985C134.804 15.9825 134.815 16.2971 135.017 16.324Z" fill="#FBFBFB"/>
<path d="M151.559 17.6996C156.431 16.6459 160.747 14.0061 164.932 11.4042C167.439 9.84499 171.216 6.76581 174.447 7.17457C177.809 7.60047 175.686 11.3589 174.167 12.568C173.042 13.4627 171.751 14.0795 170.416 14.5984C168.657 15.2801 166.805 15.7341 164.959 16.1037C160.482 16.9996 156.042 17.1036 151.506 17.3104C151.303 17.3202 151.232 17.6531 151.455 17.6862C156.655 18.4486 162.587 17.5062 167.635 16.1698C170.791 15.3339 178.223 12.8752 176.984 8.28704C176.181 5.3131 171.96 6.8441 170.078 7.64449C167.488 8.74595 165.178 10.4728 162.787 11.9365C159.169 14.1517 155.482 15.963 151.45 17.3043C151.198 17.3863 151.299 17.7559 151.559 17.6996Z" fill="#FBFBFB"/>
<path d="M167.461 21.8753C171.027 20.5915 174.523 18.8598 177.634 16.6887C179.12 15.6521 180.403 14.4907 181.653 13.1762C182.987 11.7737 188.166 6.20644 189.329 11.0076C190.46 15.6802 181.949 19.2955 178.563 20.1583C174.885 21.0945 171.157 21.152 167.399 21.3711C167.033 21.3919 167.052 21.879 167.399 21.9255C171.947 22.535 177.647 21.6514 181.833 19.8401C185.06 18.4425 190.605 15.1883 189.973 10.9146C189.378 6.89058 185.433 8.70065 183.427 10.4924C180.952 12.7039 178.971 15.1197 176.132 16.9396C173.353 18.719 170.375 20.146 167.336 21.4237C167.067 21.5363 167.171 21.9794 167.461 21.8753Z" fill="#FBFBFB"/>
<path d="M184.525 23.7894C188.185 22.3918 191.053 19.7018 193.607 16.7988C195.162 15.0316 196.545 13.1175 198.15 11.3955C199.279 10.1851 204.577 4.6289 205.717 9.5818C206.102 11.2499 203.658 14.0293 202.702 15.0634C201.441 16.4268 199.958 17.4499 198.339 18.3543C193.975 20.7947 189.202 22.0822 184.425 23.4247C184.147 23.5031 184.267 23.8947 184.541 23.8482C190.268 22.8801 196.804 20.78 201.429 17.1305C203.581 15.4318 207.057 11.7627 206.24 8.69943C205.225 4.90062 201.032 7.80232 199.337 9.31745C194.041 14.0501 190.9 20.0408 184.404 23.5018C184.249 23.5838 184.355 23.8543 184.525 23.7894Z" fill="#FBFBFB"/>
<path d="M161.22 20.446C164.854 22.2879 168.303 24.3758 172.071 25.9595C174.087 26.8064 176.139 27.6814 178.227 28.3386C179.477 28.7327 185.328 29.7766 183.564 32.4079C182.435 34.0931 178.881 33.5864 177.345 33.1348C174.998 32.4458 172.988 30.9552 171.124 29.4327C167.641 26.5873 164.368 23.573 161.518 20.0887C161.299 19.8207 160.847 20.1706 161.037 20.4595C164.031 25.0085 168.998 29.4082 173.644 32.2549C176.166 33.8018 181.936 35.9717 184.263 32.753C186.323 29.9064 181.28 28.4536 179.487 27.9457C176.198 27.0144 172.964 25.7024 169.854 24.2901C167.033 23.01 164.35 20.8988 161.344 20.1486C161.172 20.1058 161.049 20.3591 161.22 20.446Z" fill="#FBFBFB"/>
<path d="M181.163 23.9265C184.392 25.2703 188.041 25.5126 191.489 25.903C194.341 26.2261 203.786 26.5272 204.459 30.3517C205.403 35.7183 194.972 30.7629 192.761 29.9454C188.513 28.3764 184.935 26.2543 181.342 23.5324C181.103 23.3513 180.829 23.7356 181.029 23.9375C185.147 28.1096 190.837 29.79 196.105 31.9672C198.203 32.8337 203.869 35.1822 205.192 31.9146C206.488 28.713 201.911 27.1465 199.823 26.5982C193.782 25.0145 187.379 24.8383 181.258 23.5838C181.03 23.5386 180.958 23.8408 181.163 23.9265Z" fill="#FBFBFB"/>
<path d="M195.403 22.6415C201.177 22.2609 207.308 19.3346 213.072 20.6258C213.663 20.758 214.447 20.8779 214.935 21.2291C216.495 22.3502 215.773 24.1725 213.849 24.8101C212.165 25.367 210.207 24.5287 208.508 24.3243C204.043 23.7882 199.856 23.3366 195.471 22.2217C195.135 22.136 195.025 22.6047 195.332 22.7284C198.13 23.8567 201.148 24.394 204.14 24.7086C206.754 24.9839 209.428 25.4061 212.042 25.5811C213.885 25.7035 217.725 24.1994 216.415 21.6685C215.364 19.6345 211.239 19.6149 209.34 19.7214C204.674 19.9833 199.996 21.6587 195.356 22.3135C195.173 22.3392 195.216 22.6537 195.403 22.6415Z" fill="#FBFBFB"/>
<path d="M203.823 18.8574C208.735 17.9163 212.778 15.8712 216.541 12.6036C217.881 11.4397 221.777 8.07288 219.057 6.32156C216.415 4.61919 213.408 7.22477 211.815 9.06176C209.079 12.2144 206.25 15.2887 203.525 18.4486C203.227 18.795 203.693 19.276 204.032 18.9553C205.881 17.2089 207.509 15.1981 209.181 13.284C210.909 11.3063 212.731 8.27239 215.117 7.09994C215.846 6.74136 216.81 6.4305 217.621 6.66304C219.647 7.24436 218.961 9.06788 218.035 10.1742C217.053 11.3491 215.821 12.3429 214.632 13.2975C211.339 15.9373 207.803 17.4904 203.735 18.5453C203.532 18.5967 203.62 18.8954 203.823 18.8574Z" fill="#FBFBFB"/>
</svg>
