<svg width="120" height="84" viewBox="0 0 120 84" fill="none" xmlns="http://www.w3.org/2000/svg">
<path d="M30.5304 56.5387C20.9851 55.1991 12.935 61.5152 8.95156 69.7665C8.88346 69.9078 8.90684 70.0979 9.0593 70.1782C14.0256 72.7762 20.0032 71.7882 25.1372 70.169C29.1053 68.9168 33.1833 66.2243 34.1926 61.9238C34.2566 61.6504 33.8358 61.4369 33.7138 61.7215C31.9208 65.9 28.9315 68.3527 24.5588 69.6659C22.5697 70.2636 9.1274 72.828 10.0127 68.9554C10.4518 67.0323 12.6514 64.6905 13.9351 63.3173C15.3683 61.7845 17.0119 60.4499 18.8292 59.3979C22.3938 57.3356 26.4077 56.5824 30.4928 56.8182C30.6503 56.8284 30.692 56.5611 30.5304 56.5387Z" fill="#FBFBFB"/>
<path d="M9.40195 69.9362C17.014 67.0851 24.5051 62.9065 30.9025 57.8823C31.0438 57.7715 30.8588 57.5327 30.7104 57.6333C23.817 62.255 16.8463 66.2354 9.32877 69.7624C9.23221 69.8071 9.30031 69.9738 9.40195 69.9362Z" fill="#FBFBFB"/>
<path d="M9.70883 69.9758C14.5531 70.4342 19.6942 68.936 24.1391 67.1094C27.6265 65.6773 31.3171 63.6505 33.5096 60.4813C33.6468 60.2831 33.3429 60.0575 33.1792 60.2262C27.1203 66.4467 18.3007 69.5184 9.70883 69.746C9.55839 69.7501 9.56348 69.9626 9.70883 69.9758Z" fill="#FBFBFB"/>
<path d="M9.88678 69.4679C14.6671 63.1772 21.3206 60.9471 28.1205 57.5726C28.334 57.4669 28.1846 57.1162 27.9579 57.1884C21.1448 59.3351 13.6232 63.1386 9.7699 69.3998C9.72314 69.475 9.83596 69.5339 9.88678 69.4679Z" fill="#FBFBFB"/>
<path d="M64.6357 57.9457C60.2803 66.5528 63.6782 76.2099 70.1955 82.65C70.3134 82.7669 70.5015 82.7618 70.6214 82.65C74.5276 78.9665 75.4942 73.3893 75.7625 68.2452C75.9922 63.8308 74.927 58.7223 70.907 56.2046C70.658 56.0481 70.3673 56.415 70.5899 56.6162C74.0732 59.7661 75.3539 63.5473 75.112 68.2452C74.9931 70.5616 74.7166 72.8893 74.124 75.1345C73.813 76.3156 73.4085 77.4682 72.8789 78.57C72.5252 79.3069 71.4925 81.5716 70.7088 81.7342C69.1334 82.0605 66.8057 77.7793 66.1319 76.6277C65.0341 74.7524 64.1976 72.7144 63.7036 70.5962C62.7146 66.3536 63.2675 62.0572 64.8969 58.0555C64.9579 57.9061 64.7088 57.8014 64.6357 57.9457Z" fill="#FBFBFB"/>
<path d="M70.4873 82.2565C70.2504 74.1434 68.7156 65.7121 66.0444 58.0472C65.9784 57.8562 65.6846 57.9324 65.7385 58.1316C67.8872 66.137 69.3905 74.0102 70.2972 82.2565C70.3094 82.3754 70.4903 82.3825 70.4873 82.2565Z" fill="#FBFBFB"/>
<path d="M70.6144 82.0066C72.5202 77.7792 72.7906 72.7652 72.6178 68.1852C72.4674 64.1937 71.7864 59.7133 69.3581 56.4251C69.1995 56.2107 68.8702 56.3916 68.9952 56.6376C72.9197 64.3746 72.9644 73.7247 70.404 81.9181C70.3654 82.0391 70.5605 82.1265 70.6144 82.0066Z" fill="#FBFBFB"/>
<path d="M70.2067 81.6635C65.8127 75.0964 65.8351 68.1207 64.843 60.595C64.8085 60.3348 64.4293 60.3155 64.4222 60.595C64.2505 67.7324 65.4427 76.0793 70.1 81.7459C70.1488 81.8038 70.2494 81.7265 70.2067 81.6635Z" fill="#FBFBFB"/>
<path d="M58.6642 46.2721C46.8278 54.0233 38.2939 68.6325 39.7525 83.1409C39.7718 83.33 39.9415 83.4347 40.1174 83.3503C52.5575 77.3554 63.8307 63.8969 60.7834 49.3712C60.7438 49.1821 60.4134 49.2207 60.4399 49.4179C61.438 56.8724 59.8575 63.8034 55.4228 69.9223C52.1895 74.3824 47.9012 78.0761 43.2571 81.0044C42.2549 81.6366 41.1745 82.4162 40.0584 82.8401C39.6701 82.9875 40.3013 83.2893 40.2261 83.0149C40.1245 82.6449 40.1753 82.152 40.1641 81.7749C40.033 77.1847 40.7303 72.5589 42.0994 68.1812C44.9373 59.1004 50.859 51.6805 58.7851 46.4784C58.9122 46.394 58.7933 46.1877 58.6642 46.2721Z" fill="#FBFBFB"/>
<path d="M39.9731 83.4344C41.5668 76.9648 43.2663 70.6345 46.3115 64.664C49.6241 58.167 54.1411 52.5706 59.1358 47.2984C59.2903 47.1347 59.0514 46.8959 58.8888 47.0514C48.8302 56.6434 41.7721 69.5683 39.8206 83.3917C39.8064 83.4903 39.9476 83.536 39.9731 83.4344Z" fill="#FBFBFB"/>
<path d="M40.2851 82.965C47.3777 71.7223 53.6054 59.9287 59.5424 48.0406C59.6674 47.7906 59.3015 47.572 59.1653 47.82C52.7577 59.4673 47.0047 71.4845 40.0991 82.8563C40.0279 82.9752 40.2119 83.0809 40.2851 82.965Z" fill="#FBFBFB"/>
<path d="M39.8836 83.4625C50.7045 75.9135 58.6357 62.3381 59.8107 49.2618C59.831 49.0402 59.4956 49.0483 59.4692 49.2618C57.853 62.3554 50.4067 75.321 39.7149 83.1749C39.5451 83.2999 39.7057 83.5865 39.8836 83.4625Z" fill="#FBFBFB"/>
<path d="M75.9507 56.5427C83.3117 68.626 97.6424 77.6275 112.191 76.6416C112.386 76.6284 112.475 76.4484 112.4 76.2767C106.813 63.6455 93.7261 51.9495 79.1108 54.5241C78.9187 54.5577 78.9614 54.887 79.1576 54.8677C86.8235 54.0952 93.8633 56.0355 99.8968 60.8758C104.079 64.232 107.506 68.5213 110.202 73.139C110.788 74.1422 111.518 75.2297 111.899 76.3366C112.033 76.7249 112.344 76.1059 112.069 76.1639C111.69 76.2431 111.235 76.1862 110.852 76.1852C106.259 76.1699 101.654 75.3232 97.3202 73.8118C88.3309 70.6782 81.103 64.5207 76.1571 56.4218C76.0768 56.2917 75.8715 56.4106 75.9507 56.5427Z" fill="#FBFBFB"/>
<path d="M112.481 76.4298C106.065 74.6267 99.7953 72.7138 93.9244 69.4795C87.5381 65.9617 82.0921 61.2587 76.9876 56.0972C76.828 55.9356 76.5912 56.1776 76.7406 56.3442C85.9962 66.7067 98.6904 74.1866 112.44 76.5823C112.537 76.6006 112.581 76.4583 112.481 76.4298Z" fill="#FBFBFB"/>
<path d="M112.021 76.1025C101.014 68.647 89.4286 62.0372 77.7397 55.716C77.4927 55.5818 77.2772 55.9488 77.5191 56.0931C88.9509 62.8767 100.773 69.016 111.913 76.2875C112.029 76.3637 112.135 76.1797 112.021 76.1025Z" fill="#FBFBFB"/>
<path d="M112.506 76.5167C105.316 65.456 91.9962 57.0898 78.9687 55.4909C78.7796 55.4676 78.7328 55.7969 78.9229 55.8264C91.9779 57.8694 104.704 65.7233 112.217 76.6855C112.338 76.8603 112.624 76.6987 112.506 76.5167Z" fill="#FBFBFB"/>
<path d="M86.1465 51.5666C96.9958 57.2088 110.974 55.7167 119.791 46.8555C119.91 46.7366 119.867 46.5658 119.743 46.4754C109.977 39.399 95.4854 37.8693 87.294 48.0813C87.1568 48.2521 87.3835 48.496 87.541 48.3283C92.0722 43.5237 97.56 40.6746 104.28 41.2042C108.757 41.5569 113.109 43.1415 117.004 45.3359C117.685 45.7191 118.857 46.1806 119.365 46.8006C119.578 47.0588 119.541 46.3188 119.311 46.6482C119.121 46.9185 118.767 47.1462 118.52 47.3607C115.546 49.9434 112.052 51.9793 108.336 53.2844C100.886 55.9007 93.2208 54.9686 86.2654 51.3624C86.1312 51.2912 86.0103 51.4965 86.1465 51.5666Z" fill="#FBFBFB"/>
<path d="M119.81 46.5466C114.728 48.7674 109.735 50.8674 104.204 51.6602C98.2836 52.5089 92.4838 51.835 86.6658 50.6133C86.4472 50.5675 86.3547 50.8897 86.5733 50.9497C97.7113 54.0173 109.909 52.5994 119.89 46.6838C119.98 46.6299 119.901 46.5069 119.81 46.5466Z" fill="#FBFBFB"/>
<path d="M119.375 46.5403C108.505 46.8727 97.6627 48.2236 86.92 49.8671C86.6791 49.9037 86.733 50.3215 86.978 50.296C97.7806 49.1749 108.516 47.3138 119.375 46.7548C119.512 46.7477 119.514 46.5363 119.375 46.5403Z" fill="#FBFBFB"/>
<path d="M119.913 46.6049C109.93 41.8124 96.8068 42.8807 87.666 48.9548C87.4841 49.0758 87.6487 49.3655 87.8388 49.2496C97.254 43.5261 109.567 42.3715 119.746 46.8925C119.938 46.9789 120.109 46.6994 119.913 46.6049Z" fill="#FBFBFB"/>
<path d="M8.7077 34.8135C15.3328 39.11 22.9509 43.3119 30.7358 45.0123C31.0326 45.0774 31.1271 44.6789 30.8588 44.5682C23.3148 41.4487 15.9599 38.6831 9.01263 34.2921C8.68229 34.0837 8.38346 34.6021 8.7077 34.8135Z" fill="#FBFBFB"/>
<path d="M21.8329 18.5282C26.1425 25.7469 31.2166 32.933 36.625 39.3721C36.7866 39.5642 37.1169 39.3111 36.9746 39.1028C32.2005 32.1108 27.164 25.1543 22.0738 18.389C21.9681 18.2487 21.7383 18.3707 21.8329 18.5282Z" fill="#FBFBFB"/>
<path d="M12.6515 22.9294C16.9124 26.9097 21.9376 30.6379 27.4446 32.6738C27.6032 32.7318 27.6998 32.4858 27.5575 32.4055C22.3726 29.4518 17.4277 26.6241 12.87 22.7098C12.7206 22.5817 12.5041 22.7911 12.6515 22.9294Z" fill="#FBFBFB"/>
<path d="M43.5449 12.4776C43.1078 18.8689 41.7743 24.9807 40.4468 31.2236C40.4011 31.4391 40.704 31.5224 40.7761 31.3141C42.8619 25.307 43.6618 18.8018 44.0216 12.4776C44.0389 12.1707 43.5662 12.1737 43.5449 12.4776Z" fill="#FBFBFB"/>
<path d="M56.3589 12.7785C58.6042 18.5162 61.3618 24.2997 65.2121 29.147C65.3787 29.3574 65.7162 29.086 65.58 28.8634C62.3325 23.5567 59.1125 18.3952 56.6283 12.6656C56.5612 12.5142 56.298 12.623 56.3589 12.7785Z" fill="#FBFBFB"/>
<path d="M70.9161 8.33207C70.0776 15.9522 68.2988 23.0886 66.2517 30.4485C66.1725 30.7331 66.574 30.8225 66.6807 30.5664C69.5633 23.6344 70.9426 15.8059 71.3451 8.33207C71.3593 8.05154 70.9456 8.06374 70.9161 8.33207Z" fill="#FBFBFB"/>
<path d="M81.6763 36.3768C88.9244 31.5071 96.5659 25.7369 101.818 18.6788C101.973 18.4694 101.646 18.2448 101.468 18.4094C98.3132 21.351 95.4601 24.5832 92.237 27.4648C88.8126 30.5262 85.2216 33.3692 81.4557 35.9997C81.227 36.1583 81.4405 36.5343 81.6763 36.3768Z" fill="#FBFBFB"/>
<path d="M90.2174 36.445C96.5315 35.5465 103.221 33.9243 108.813 30.7489C109.063 30.6066 108.893 30.1564 108.611 30.2702C102.493 32.7259 96.6565 34.9854 90.1025 36.0323C89.8301 36.075 89.9491 36.4826 90.2174 36.445Z" fill="#FBFBFB"/>
<path d="M9.11019 34.5524C9.32567 32.0042 8.41698 28.8472 5.50796 28.4305C3.19355 28.0991 0.751065 29.3452 0.158487 31.6891C-1.14051 36.8363 5.88607 39.5248 8.82051 35.392C9.00753 35.1287 8.6223 34.9051 8.40885 35.0748C6.97975 36.2092 5.33923 37.1087 3.46493 36.5283C1.59775 35.951 0.495941 33.9598 0.865921 32.0682C1.25216 30.0984 3.1905 29.0393 5.1024 29.1674C7.85591 29.3513 8.47695 32.301 8.60909 34.5514C8.62942 34.8766 9.08376 34.8725 9.11019 34.5524Z" fill="#FBFBFB"/>
<path d="M12.8344 22.59C13.4727 20.4464 13.2267 17.5607 10.8015 16.7039C8.86318 16.0188 6.54978 16.6734 5.62788 18.5823C3.61738 22.7486 9.24027 26.4362 12.4339 23.267C12.6534 23.0494 12.376 22.7283 12.1158 22.8553C10.7202 23.5373 9.1925 24.074 7.71258 23.269C6.22046 22.4579 5.62076 20.6192 6.26619 19.0732C6.94314 17.453 8.81439 16.8889 10.4254 17.4022C12.6067 18.0984 12.5782 20.6456 12.3424 22.5229C12.3068 22.8116 12.7571 22.8502 12.8344 22.59Z" fill="#FBFBFB"/>
<path d="M22.5719 18.6166C23.8932 16.7525 24.556 13.9197 22.4621 12.3442C20.787 11.0848 18.372 11.0279 16.9195 12.639C13.8601 16.0328 18.0234 21.0245 21.9813 19.1339C22.207 19.0262 22.1064 18.6125 21.8492 18.6461C20.4404 18.827 18.9514 18.8961 17.7957 17.902C16.5831 16.8582 16.2914 15.0754 17.1045 13.6971C18.0782 12.0474 20.0938 11.8126 21.6673 12.7457C23.8089 14.0152 23.0181 16.5543 22.1389 18.3635C21.9976 18.6562 22.3859 18.8798 22.5719 18.6166Z" fill="#FBFBFB"/>
<path d="M44.4037 12.8618C46.2698 12.0629 48.2427 10.2649 47.7437 8.02367C47.2791 5.93695 45.1457 4.2822 43.003 4.73654C38.3396 5.72552 39.0755 12.5203 43.6281 13.0021C43.8812 13.0285 43.994 12.6169 43.7603 12.5142C42.3728 11.9003 41.0474 11.1309 40.6195 9.55845C40.1601 7.8722 41.2131 6.0894 42.8597 5.57712C44.6639 5.01605 46.6398 6.40245 46.9935 8.231C47.3645 10.147 45.5543 11.5334 44.1516 12.4309C43.8731 12.6078 44.115 12.9858 44.4037 12.8618Z" fill="#FBFBFB"/>
<path d="M71.7508 8.45347C73.617 7.65456 75.5899 5.85648 75.0908 3.61425C74.6263 1.52752 72.4938 -0.127229 70.3502 0.327114C65.6868 1.3161 66.4227 8.11093 70.9753 8.59272C71.2284 8.61914 71.3412 8.20748 71.1074 8.10482C69.72 7.4909 68.3946 6.72147 67.9667 5.14906C67.5072 3.46281 68.5603 1.67997 70.2069 1.16769C72.011 0.606627 73.987 1.99306 74.3407 3.82161C74.7117 5.73757 72.9014 7.12397 71.4988 8.02147C71.2203 8.19935 71.4622 8.57748 71.7508 8.45347Z" fill="#FBFBFB"/>
<path d="M88.9285 12.9218C89.8789 20.5389 89.8179 27.9252 89.5231 35.5749C89.514 35.8198 89.9195 35.8849 89.9602 35.6338C91.1515 28.1895 90.6941 20.2593 89.3493 12.8648C89.3076 12.63 88.899 12.6809 88.9285 12.9218Z" fill="#FBFBFB"/>
<path d="M89.7283 12.9318C91.3627 11.7141 92.9412 9.49624 91.8973 7.40647C90.9521 5.5149 88.5675 4.40091 86.5855 5.28825C82.2382 7.23369 84.4479 13.8049 88.9924 13.2194C89.2556 13.1859 89.3817 12.7641 89.0615 12.7051C87.7076 12.4551 86.309 12.081 85.503 10.8532C84.5414 9.3875 84.887 7.38412 86.3192 6.35753C87.9627 5.18051 90.3341 5.92554 91.1807 7.76222C92.0091 9.55926 90.6166 11.2994 89.4244 12.5394C89.2373 12.7346 89.4925 13.1076 89.7283 12.9318Z" fill="#FBFBFB"/>
<path d="M102.127 19.2558C104.286 19.8169 107.167 19.4825 107.943 17.0319C108.563 15.0732 107.835 12.7812 105.899 11.9213C101.676 10.048 98.1535 15.7898 101.438 18.8747C101.656 19.08 101.99 18.8218 101.849 18.5565C101.12 17.1884 100.525 15.6851 101.269 14.1747C102.018 12.6521 103.834 11.9772 105.406 12.5637C107.054 13.1786 107.689 15.0184 107.238 16.6528C106.628 18.8666 104.079 18.9316 102.194 18.7629C101.909 18.7395 101.858 19.1867 102.127 19.2558Z" fill="#FBFBFB"/>
<path d="M108.971 30.5685C110.164 32.2232 112.359 33.8312 114.465 32.8178C116.371 31.901 117.518 29.5317 116.66 27.5375C114.777 23.1618 108.18 25.277 108.694 29.8285C108.725 30.0968 109.145 30.2137 109.208 29.8986C109.481 28.5478 109.877 27.1553 111.12 26.3706C112.604 25.4345 114.598 25.8136 115.601 27.2661C116.752 28.9351 115.962 31.2881 114.111 32.1023C112.3 32.8981 110.586 31.4761 109.365 30.2656C109.17 30.0724 108.801 30.3316 108.971 30.5685Z" fill="#FBFBFB"/>
<path d="M57.1162 12.2949C58.5138 10.6748 59.5455 8.05439 57.8765 6.24719C56.4931 4.74897 54.07 4.26617 52.3878 5.51942C48.566 8.36542 52.1571 14.2851 56.4657 12.7371C56.729 12.6426 56.7086 12.2126 56.3956 12.2228C55.0163 12.2685 53.5729 12.1994 52.526 11.1657C51.2382 9.89415 51.2067 7.79215 52.4701 6.48706C53.7711 5.14232 55.9189 5.40052 57.1904 6.66597C58.7374 8.20484 57.6681 10.442 56.7239 11.992C56.5785 12.2299 56.9272 12.5145 57.1162 12.2949Z" fill="#FBFBFB"/>
<path d="M52.0602 31.477C54.5332 31.3236 57.5266 32.2577 59.659 34.6666C61.7915 37.0755 63.43 40.1065 63.5764 43.6508C63.7502 47.8466 62.5101 52.1044 60.2069 55.2249C57.9037 58.3453 54.9519 60.8793 51.1292 59.8842" fill="#0D0628"/>
<path d="M52.0603 31.5961C59.2678 31.7628 63.7452 39.0516 63.2237 45.7489C62.747 51.8789 58.4638 60.6771 51.1292 59.7146C50.9351 59.6891 50.9036 60.0002 51.0835 60.05C58.5522 62.1235 63.3111 52.1239 63.8336 46.1676C64.4404 39.263 59.8848 30.7942 52.0593 31.3583C51.9088 31.3685 51.9048 31.5921 52.0603 31.5961Z" fill="#FBFBFB"/>
<path d="M40.0916 37.2007C37.8372 37.0615 35.4323 36.9547 33.4777 38.085C30.9865 39.5253 29.9314 42.5583 29.4232 45.3901C29.1742 46.7744 29.0115 48.2157 29.3724 49.5757C29.8908 51.5252 31.45 53.0722 33.2419 53.9982C35.0339 54.9241 37.0525 55.3053 39.0498 55.5879C40.549 55.7993 42.0879 55.9609 43.5658 55.6346C47.6153 54.7402 50.1248 50.1571 49.6034 46.0426C49.082 41.9291 46.1414 38.4397 42.6378 36.2229" fill="#0D0628"/>
<path d="M40.0918 36.99C37.3077 36.7948 34.3103 36.6668 32.1301 38.7128C30.2293 40.4967 29.4457 43.2329 29.0462 45.7242C27.9891 52.3228 33.1577 55.1007 38.9615 55.9057C44.0335 56.6091 48.4722 54.7551 49.7306 49.4006C51.0102 43.9535 47.3176 38.6437 42.7385 36.0478C42.5048 35.9156 42.333 36.2439 42.5342 36.3974C46.1863 39.1966 49.7915 43.0133 49.2986 48.0101C48.7975 53.0821 44.8405 55.8762 39.9525 55.3751C37.5456 55.1292 34.8216 54.6596 32.746 53.3413C29.8451 51.4985 29.1692 48.6809 29.7303 45.4751C30.086 43.4392 30.6949 41.2447 32.0823 39.653C34.1385 37.2939 37.2153 37.2848 40.0928 37.4108C40.3642 37.423 40.3601 37.0083 40.0918 36.99Z" fill="#FBFBFB"/>
<path d="M27.3264 28.4229C27.9668 26.2458 29.5941 24.5188 31.4765 23.4801C33.3599 22.4423 35.4853 22.0286 37.5924 21.8477C40.3022 21.6149 43.1512 21.7796 45.5327 23.1965C46.292 23.6478 46.9862 24.217 47.6459 24.8248C49.0424 26.1116 50.3089 27.5996 51.1739 29.3479C52.0399 31.0972 52.5583 34.5652 51.6862 36.7973" fill="#0D0628"/>
<path d="M27.476 28.4645C29.8951 22.4991 38.2624 20.6848 43.9168 22.8234C49.3577 24.8816 52.8471 31.0859 51.4953 36.7464C51.4343 37.0015 51.7839 37.0838 51.8785 36.8521C54.2518 31.0056 49.316 23.8733 43.7541 22.0478C37.9991 20.1583 29.1145 21.8913 27.1772 28.3822C27.1182 28.5784 27.4028 28.6444 27.476 28.4645Z" fill="#FBFBFB"/>
<path d="M18.8646 44.4736C18.1683 42.4651 17.4477 39.8153 17.7394 37.694C18.0311 35.5728 18.9307 33.5277 20.377 32.059C21.1871 31.2357 22.1497 30.6055 23.1468 30.0718C25.6188 28.7474 28.3763 27.9831 31.1329 28.1101C34.9221 28.285 38.3943 29.7659 39.9555 33.7107" fill="#0D0628"/>
<path d="M19.0558 44.4201C18.1816 41.7479 17.5016 38.9751 18.327 36.1952C19.4085 32.5523 22.4445 30.3629 25.9157 29.1981C31.0883 27.462 37.32 28.449 39.6934 33.8635C39.8489 34.2182 40.3703 33.9112 40.2148 33.5585C37.6016 27.6287 30.5099 26.718 24.9704 28.9043C22.1356 30.0224 19.6453 31.7239 18.3605 34.5597C16.8552 37.8824 17.5342 41.2031 18.6736 44.5268C18.7549 44.7657 19.1361 44.665 19.0558 44.4201Z" fill="#FBFBFB"/>
<path d="M26.4595 40.1218C24.453 40.7459 22.4507 41.5052 20.7248 42.7747C14.0458 47.6902 16.1641 59.0386 23.5007 61.8886C25.3353 62.6011 27.2401 62.1265 29.0961 61.7921" fill="#0D0628"/>
<path d="M26.4097 39.9415C20.1434 41.3868 15.6203 46.2443 16.5442 52.8948C16.9315 55.6869 18.2386 58.3998 20.3569 60.2893C23.0311 62.6749 25.8151 62.7033 29.1764 62.0823C29.5576 62.0122 29.396 61.4287 29.0158 61.4999C25.4349 62.1697 22.4812 61.8556 19.9594 59.0716C18.3189 57.2614 17.3452 54.9073 17.0697 52.4933C16.7953 50.0823 17.2252 47.5779 18.5385 45.5084C20.3863 42.5984 23.4824 41.5566 26.5083 40.3003C26.7258 40.2118 26.6506 39.8856 26.4097 39.9415Z" fill="#FBFBFB"/>
<path d="M28.7169 57.0276C28.5909 58.8744 28.475 60.7924 29.094 62.5194C29.4701 63.5673 30.1013 64.4882 30.8128 65.3084C32.8995 67.7143 35.7486 69.3314 38.7664 69.8224C41.4528 70.2594 44.2805 69.799 46.66 68.3811C48.4367 67.322 49.9735 65.6927 50.7145 63.6517C51.4575 61.6036 51.3559 59.3186 51.1058 57.1343" fill="#0D0628"/>
<path d="M28.5716 56.9879C28.0278 60.5068 28.5817 63.5337 31.1025 66.1408C33.4372 68.5559 36.6227 70.1079 39.983 70.3255C43.3179 70.5409 46.7585 69.4015 49.0872 66.956C51.6923 64.2208 51.8773 60.7162 51.5033 57.1343C51.4504 56.6311 50.6566 56.625 50.7094 57.1343C51.0357 60.2974 51.0408 63.5612 48.7914 66.0992C46.7006 68.4583 43.5141 69.677 40.3916 69.6008C37.5832 69.5327 34.9009 68.4247 32.7399 66.6623C29.5118 64.0297 28.9792 61.0272 28.8684 57.0275C28.8633 56.8659 28.599 56.8131 28.5716 56.9879Z" fill="#FBFBFB"/>
<path d="M45.0947 35.1822C47.1723 35.1039 49.2651 35.5623 51.1506 36.5086C51.7757 36.8227 52.3825 37.1916 52.905 37.6775C53.5331 38.2609 54.0251 38.9968 54.4428 39.7703C55.4562 41.6426 56.061 43.7527 56.3446 45.8994C56.5245 47.2614 56.5773 48.658 56.3364 50.0088C55.9746 52.0477 54.9287 53.9373 53.4386 55.2474C51.9485 56.5576 50.0234 57.2793 48.1023 57.2468" fill="#0D0628"/>
<path d="M45.0947 35.2734C47.6978 35.377 50.7349 36.0255 52.7129 37.8683C54.5516 39.581 55.4196 42.3751 55.8831 44.7698C56.928 50.1762 54.822 57.1601 48.1044 56.9761C47.7507 56.9659 47.7639 57.5514 48.1044 57.5158C54.3239 56.8602 57.3773 51.8269 56.6129 45.8615C56.2582 43.0968 55.3637 39.8707 53.3908 37.7982C51.296 35.5976 48.0089 34.9695 45.0947 35.0904C44.9779 35.0955 44.9779 35.2683 45.0947 35.2734Z" fill="#FBFBFB"/>
<path d="M36.9631 39.2784C36.1012 39.1462 35.2677 38.8342 34.5308 38.3687C34.3204 38.2355 34.1151 38.0881 33.9524 37.9001C33.555 37.4417 33.4513 36.7688 33.6221 36.1864C34.0683 34.6679 36.2292 34.185 37.5963 33.9096C39.2704 33.5721 41.0288 33.6646 42.6521 34.1993C44.8963 34.9382 46.9516 36.5787 47.9355 38.8809C48.9194 41.1832 48.9458 43.5992 47.3185 45.4267" fill="#0D0628"/>
<path d="M37.0008 39.1443C35.8908 39.0813 35.3928 38.3687 35.5066 37.0057C34.3296 35.6396 34.4699 34.8428 35.9295 34.6141C36.4031 34.4443 36.9073 34.3355 37.3992 34.238C39.5662 33.809 41.8329 33.993 43.819 35.0074C47.6916 36.9834 49.5262 41.5318 47.1783 45.3445C47.0817 45.501 47.3064 45.6779 47.4344 45.5417C51.8762 40.8142 46.0531 34.2085 40.9923 33.5133C38.9411 33.2317 34.8866 33.4726 33.6394 35.5319C32.2327 37.8524 35.0919 39.0965 36.9266 39.4126C37.0994 39.4421 37.1756 39.1931 37.0008 39.1443Z" fill="#FBFBFB"/>
<path d="M40.0562 41.8871C38.8142 39.2637 36.7071 37.1058 34.8521 35.6401C33.9018 34.889 32.7796 34.3503 31.6036 34.2852C30.4276 34.2212 29.2008 34.6746 28.4283 35.633C27.8398 36.3618 27.5521 37.3122 27.297 38.2392C26.6963 40.4235 26.2125 42.8304 27.0348 44.9283" fill="#0D0628"/>
<path d="M40.1458 41.8357C38.6476 38.576 34.7089 33.191 30.4704 34.0956C26.3376 34.9778 25.7206 41.7655 26.7675 45.0029C26.8773 45.3413 27.4069 45.2001 27.3032 44.8555C26.3122 41.5521 27.3398 33.7266 32.2583 34.7004C35.5668 35.356 38.3965 39.1909 39.9669 41.9394C40.035 42.0573 40.2007 41.9536 40.1458 41.8357Z" fill="#FBFBFB"/>
<path d="M35.6035 50.2997C35.1349 49.1623 35.3433 47.7373 36.1137 46.8113C36.3841 46.4871 36.7114 46.2248 37.0448 45.9789C38.1659 45.1515 39.4608 44.4583 40.8157 44.5467" fill="#0D0628"/>
<path d="M35.7864 50.2483C34.8238 47.258 38.0337 44.78 40.8146 44.8196C41.1673 44.8247 41.1673 44.2768 40.8146 44.2717C37.7562 44.228 34.1753 47.071 35.4184 50.35C35.5048 50.5746 35.8636 50.4852 35.7864 50.2483Z" fill="#FBFBFB"/>
<path d="M36.9358 46.073C37.0069 46.7845 37.318 47.4645 37.7967 47.9575C38.2754 48.4514 38.9188 48.7543 39.5795 48.798C39.9099 48.8194 40.7505 48.5622 41.0076 48.3376" fill="#0D0628"/>
<path d="M36.7762 46.0725C36.9205 48.2528 39.1689 49.7835 41.1225 48.5353C41.3989 48.3595 41.1082 47.9621 40.8439 48.1735C40.3337 48.5811 39.5012 48.6258 38.9138 48.4154C37.876 48.0444 37.3139 47.0513 37.0882 46.0309C37.0506 45.857 36.765 45.8926 36.7762 46.0725Z" fill="#FBFBFB"/>
<path d="M37.5498 59.5237C43.3089 63.9004 52.7668 56.4358 46.7739 49.4895L37.5498 59.5237Z" fill="#0D0628"/>
<path d="M37.4635 59.6706C40.3888 61.8285 44.3478 61.3192 46.9051 58.7934C49.4228 56.3062 49.7948 51.778 46.8889 49.3742C46.7496 49.2593 46.5433 49.4006 46.6337 49.5714C47.4824 51.1773 48.509 52.4601 48.4135 54.3923C48.3342 55.9881 47.5424 57.4863 46.3817 58.5647C43.9615 60.8141 40.4 61.242 37.6363 59.3768C37.4513 59.2508 37.2907 59.5425 37.4635 59.6706Z" fill="#FBFBFB"/>
<path d="M34.0869 42.3608C33.166 44.0766 33.0511 46.268 33.786 48.0854C34.9762 51.03 38.1821 52.6044 41.15 52.3879C41.331 52.3747 41.5393 52.3666 41.6633 52.5099C41.7497 52.6095 41.768 52.7548 41.7822 52.891C42.7519 62.2584 31.5631 60.2713 27.6203 55.6638C26.4901 54.3425 25.6139 52.707 25.4106 50.9212C25.2053 49.1363 25.9635 42.3608 34.0869 42.3608Z" fill="#0D0628"/>
<path d="M33.9152 42.2609C31.8681 46.3977 33.8552 51.0743 38.3244 52.3977C38.793 52.5369 39.287 52.6294 39.7718 52.6823C40.7263 52.785 41.1115 52.3692 41.5069 53.5137C41.8342 54.4621 41.3239 56.1066 40.8452 56.9493C39.7515 58.8744 37.495 59.3491 35.4418 59.1681C30.9147 58.7697 25.738 55.2793 25.7238 50.2988C25.7197 48.7274 26.2503 47.0665 27.1498 45.7858C28.83 43.3962 31.4412 42.951 34.1388 42.5495C34.3715 42.515 34.2882 42.1867 34.0869 42.1674C29.5272 41.7303 25.6506 44.8629 25.1088 49.3789C24.5884 53.715 27.9873 57.3558 31.7644 58.8947C35.0373 60.2282 40.0127 60.583 41.6756 56.6982C42.1117 55.6798 42.8455 52.7636 41.5892 52.1151C41.3046 51.9678 40.7039 52.0999 40.461 52.0887C39.1112 52.0267 37.8152 51.6974 36.6585 50.9768C33.6987 49.135 32.9191 45.5633 34.2577 42.4621C34.3573 42.2314 34.031 42.0271 33.9152 42.2609Z" fill="#FBFBFB"/>
<path d="M38.6606 52.1556C39.7157 51.3282 40.9679 49.4895 41.2485 47.0918C41.4375 45.4736 40.7606 43.2314 40.0562 41.8876C41.588 40.3691 43.3586 40.4728 44.6078 41.0979C45.985 41.787 47.0675 43.4804 47.3349 45.4258C47.6032 47.3713 47.0299 49.4966 45.8763 50.7224C45.3 51.3343 44.557 52.1617 43.7347 52.4331C42.9337 52.6973 41.7628 52.5744 40.9557 52.3823C40.2686 52.2186 39.5805 51.9259 38.8832 52.0357" fill="#0D0628"/>
<path d="M38.7349 52.2822C40.0441 51.339 40.8501 49.8408 41.2567 48.2999C41.4824 47.4471 41.5637 46.6309 41.4793 45.7527C41.3736 44.6539 40.5493 43.3926 40.5472 42.368C40.5422 39.8707 44.5947 41.1991 45.4078 41.9614C46.7149 43.1882 47.2526 45.1612 47.1256 46.9023C46.964 49.1283 45.5481 51.6073 43.2723 52.0993C41.7273 52.4337 40.4131 51.773 38.8833 51.7669C38.5357 51.7659 38.5357 52.3036 38.8833 52.3066C41.4254 52.333 43.2174 53.6341 45.3499 51.651C47.09 50.0339 47.9133 47.7998 47.588 45.4254C47.0453 41.4736 43.2316 38.9162 39.8906 41.7205C39.8063 41.7907 39.8113 41.9157 39.854 42.0051C41.5271 45.5301 41.3106 49.1405 38.5571 52.0505C38.4473 52.1674 38.5947 52.3829 38.7349 52.2822Z" fill="#FBFBFB"/>
<path d="M33.9395 42.3608C34.839 42.1656 35.6532 42.1321 36.6615 42.4187C37.6687 42.7044 40.4161 43.546 41.0077 44.4729" fill="#0D0628"/>
<path d="M33.9597 42.4338C35.9306 42.1685 39.5491 42.8901 40.8806 44.5997C41.0219 44.7807 41.274 44.5266 41.1337 44.3467C40.4171 43.4349 39.0968 43.0365 38.0376 42.6879C36.6492 42.2305 35.3726 41.9367 33.9201 42.2884C33.8225 42.3118 33.8672 42.446 33.9597 42.4338Z" fill="#FBFBFB"/>
<path d="M88.2493 48.6494C84.4489 50.0328 80.5336 51.4842 77.5941 54.2621C76.4313 55.3609 75.3955 56.8093 75.5053 58.4051C75.7371 61.7613 80.6861 64.7862 83.6266 65.2578C85.9319 65.6268 88.3134 65.0779 90.4529 64.2394C92.1524 63.5736 93.7878 62.6995 94.9811 61.4483C96.1754 60.196 96.8829 58.5209 96.5637 56.914" fill="#0D0628"/>
<path d="M88.1894 48.4304C82.2281 50.3159 69.3407 56.446 78.3494 63.257C81.794 65.8611 85.6768 66.3236 89.7486 64.9331C93.3244 63.7114 97.4084 61.2414 96.8982 56.9135C96.8484 56.4947 96.1877 56.4836 96.2314 56.9135C96.6532 61.1185 92.1271 63.4207 88.6997 64.4096C85.3282 65.3834 82.1986 64.925 79.3089 62.9663C78.1471 62.1796 76.9436 61.1317 76.3226 59.8479C74.9768 57.066 77.5901 54.5402 79.6545 53.0653C82.287 51.1849 85.3475 50.0974 88.3104 48.8675C88.5696 48.7587 88.475 48.34 88.1894 48.4304Z" fill="#FBFBFB"/>
<path d="M83.9193 28.7177C80.1799 29.728 76.0491 29.1954 72.6888 27.2693C72.1643 26.9684 71.6479 26.6269 71.28 26.1482C70.3042 24.8807 70.6173 23.0816 70.9771 21.5234C71.9732 17.2056 76.9964 14.5162 81.3162 14.9075C84.581 15.2033 88.3692 16.6761 90.6908 19.1186C91.9958 20.4907 92.8039 22.4575 92.3821 24.3034" fill="#0D0628"/>
<path d="M83.8757 28.5595C80.24 29.3686 75.4089 29.1643 72.3636 26.7015C68.8641 23.8717 72.137 18.5223 75.0552 16.7141C80.5053 13.3345 93.048 16.3665 92.1312 24.3017C92.0986 24.5792 92.5794 24.6473 92.6221 24.3678C93.3072 19.9433 89.4732 17.019 85.7297 15.6082C81.665 14.0764 77.1165 14.1608 73.6159 16.9743C71.2781 18.8527 68.9179 23.514 71.0474 26.3244C73.6931 29.8158 80.2166 29.8311 83.9611 28.8726C84.1664 28.8218 84.08 28.5148 83.8757 28.5595Z" fill="#FBFBFB"/>
<path d="M73.7999 40.462C72.5659 42.9858 70.2129 44.9363 67.5051 45.6804C63.6691 46.7334 61.2673 45.3439 58.8248 42.4969C55.9107 39.101 54.8028 35.39 55.0315 30.9798C55.3059 25.6832 59.3676 20.8063 64.527 19.5785C65.8799 19.2563 67.2754 19.1648 68.6639 19.0774C69.9923 18.9941 73.7074 20.8571 74.6639 22.1673" fill="#0D0628"/>
<path d="M73.6697 40.3857C70.7505 44.7309 65.0839 47.7934 60.5334 43.7857C56.9779 40.6541 55.1555 36.0873 55.3557 31.3883C55.748 22.1744 67.2144 15.4599 74.493 22.338C74.6841 22.519 75.0368 22.2791 74.8732 22.0443C72.138 18.1056 66.3108 18.2053 62.3935 19.9444C57.5674 22.087 54.63 26.9862 54.6686 32.1984C54.7062 37.2866 57.3164 43.4431 62.1993 45.7169C66.6177 47.7741 72.1634 44.7269 73.9462 40.5006C74.0153 40.3369 73.7592 40.2526 73.6697 40.3857Z" fill="#FBFBFB"/>
<path d="M66.4387 31.5581C66.889 28.2069 68.9402 25.1068 71.8492 23.3829C73.9501 22.1388 76.4038 21.6103 78.8361 21.4019C81.182 21.2017 83.6133 21.2952 85.7804 22.2161C90.395 24.1757 90.5108 29.5191 87.9728 33.4303C86.6169 35.5201 84.3421 36.9898 81.8793 37.368" fill="#0D0628"/>
<path d="M66.5729 31.5961C67.4155 28.186 69.1881 25.1652 72.3523 23.4413C75.6547 21.6412 80.3729 21.069 84.029 21.9726C87.801 22.9057 89.9081 25.9 89.1508 29.7574C88.4068 33.5487 85.5466 36.3042 81.8 37.0828C81.4239 37.161 81.5845 37.7282 81.9586 37.6571C85.9277 36.9039 88.9587 33.9095 89.7607 29.9251C90.4021 26.7366 89.2403 23.5856 86.253 22.0986C82.4526 20.207 76.9527 20.7752 73.1512 22.4035C69.4189 24.0024 66.6796 27.4897 66.3005 31.5585C66.2852 31.716 66.5363 31.7455 66.5729 31.5961Z" fill="#FBFBFB"/>
<path d="M63.5696 43.0701C62.6904 43.4167 62.1263 44.1688 61.6221 44.8885C60.6047 46.3399 59.6188 47.8341 59.0862 49.4736C58.0941 52.5239 58.8239 55.9655 60.9991 58.5004C63.1742 61.0354 66.745 62.6048 70.3645 62.616C72.7145 62.6231 75.284 61.8404 76.3685 60.0139" fill="#0D0628"/>
<path d="M63.4557 42.8739C60.7997 44.0154 58.8512 48.0882 58.4233 50.8143C57.9568 53.7853 58.9732 56.8162 60.9908 59.0168C64.531 62.8772 73.1026 65.2353 76.7079 60.2131C77.0026 59.8025 76.3196 59.4051 76.0289 59.8168C72.7784 64.413 64.6276 62.0071 61.4939 58.5137C57.5329 54.0983 58.7547 46.5839 63.6833 43.2663C63.9303 43.0986 63.7189 42.7611 63.4557 42.8739Z" fill="#FBFBFB"/>
<path d="M68.2624 48.8992C66.4389 47.3034 65.025 45.7005 63.8765 43.3221C62.9088 41.3187 62.1008 39.0409 62.7238 36.9054C62.9749 36.0465 63.4455 35.2679 63.9801 34.5503C65.9795 31.869 69.0084 29.9327 72.3149 29.4296C75.6213 28.9264 79.1636 29.9174 81.6061 32.2024" fill="#0D0628"/>
<path d="M68.428 48.7336C64.2261 44.3233 60.2478 38.2461 65.767 33.0694C70.1214 28.9864 76.7627 28.4751 81.356 32.4524C81.6985 32.7492 82.2006 32.2512 81.8561 31.9523C76.8573 27.6285 69.6101 28.2312 64.9986 32.8478C62.6527 35.1968 61.6179 37.8263 62.5907 41.0656C63.542 44.2348 65.5332 47.092 68.1434 49.1015C68.3609 49.2682 68.6049 48.9185 68.428 48.7336Z" fill="#FBFBFB"/>
<path d="M84.6125 54.6563C85.5436 57.0205 86.8629 57.7076 89.6815 58.104C92.499 58.5004 95.4507 57.6557 97.6615 56.0742C99.1678 54.9968 99.8997 54.023 100.258 52.348C100.617 50.6729 99.4534 46.9853 97.9501 45.7859" fill="#0D0628"/>
<path d="M84.3951 54.716C86.3111 59.9079 93.6853 59.0877 97.4888 56.5883C101.127 54.1977 101.978 48.3695 98.0651 45.5906C97.8384 45.4289 97.6443 45.7623 97.7906 45.9463C100.647 49.5414 100.821 53.9924 96.4469 56.4399C92.7156 58.5287 86.9789 58.798 84.8078 54.5412C84.6939 54.3166 84.3056 54.4731 84.3951 54.716Z" fill="#FBFBFB"/>
<path d="M72.151 43.3381C69.8671 44.5944 69.2237 47.1111 68.0487 49.3229C67.4154 50.5151 67.0953 51.8741 67.3402 53.1802C68.0538 56.9766 72.8371 59.6721 76.7625 59.9435C79.9175 60.162 83.781 59.5044 85.6065 56.4551" fill="#0D0628"/>
<path d="M72.0566 43.1766C69.5694 44.4319 67.8161 48.1439 67.1401 50.7327C66.4276 53.4588 67.7652 55.9074 69.8632 57.5936C73.9492 60.8787 82.9283 62.1198 85.8201 56.5803C85.9431 56.3445 85.6239 56.0599 85.4338 56.2825C81.9241 60.3756 75.7483 60.5799 71.3085 57.7664C68.305 55.8627 66.8007 52.9232 68.3253 49.4846C69.3295 47.222 70.2972 45.0387 72.2833 43.4704C72.4571 43.3322 72.2355 43.0872 72.0566 43.1766Z" fill="#FBFBFB"/>
<path d="M89.3157 24.6812C93.1476 23.8457 97.2388 24.8987 100.152 27.5364C105.719 32.5789 106.242 43.8561 100.029 48.5937" fill="#0D0628"/>
<path d="M89.3156 24.8122C95.9295 24.0468 101.742 27.4722 103.561 33.9773C105.051 39.3085 103.765 44.539 99.8885 48.4533C99.733 48.6098 99.9353 48.8903 100.129 48.7653C105.026 45.6022 105.686 38.3113 104.046 33.2058C102.032 26.9406 95.8492 22.8769 89.2811 24.555C89.1418 24.5906 89.1662 24.8295 89.3156 24.8122Z" fill="#FBFBFB"/>
<path d="M86.0722 35.8349C87.2624 37.1146 87.8123 38.9025 87.8123 40.6498C87.8123 42.397 87.3031 44.1117 86.5956 45.7085C85.9421 47.1844 85.0639 48.6399 83.6927 49.4927C79.1767 52.3041 74.2399 49.2111 72.6644 44.686C71.8879 42.4539 71.9418 39.8254 73.1727 37.6452C74.4025 35.465 76.3063 33.9759 78.7457 34.1578" fill="#0D0628"/>
<path d="M85.9522 35.9047C90.1185 41.3903 84.9439 53.435 77.2271 49.5827C70.8704 46.4094 70.6854 35.0763 78.7467 34.3211C78.9571 34.3017 78.9551 34.0182 78.7467 33.9958C75.0225 33.5913 72.2487 37.3531 71.898 40.7449C71.4996 44.588 73.6696 48.6435 77.2302 50.2332C85.2651 53.8202 91.1563 41.4371 86.1707 35.7369C86.068 35.619 85.8556 35.7776 85.9522 35.9047Z" fill="#FBFBFB"/>
<path d="M80.3487 42.0762C79.0202 44.6569 78.5862 47.6411 78.5496 50.0053C78.5303 51.2159 78.7844 52.4356 79.4481 53.4083C80.1108 54.3811 81.2167 55.0803 82.4486 55.1108C83.3848 55.1342 84.3148 54.7866 85.2052 54.4258C87.3051 53.575 89.5098 52.4976 90.6766 50.5695" fill="#0D0628"/>
<path d="M80.2602 42.0244C78.5465 45.2607 76.601 51.9233 80.2246 54.6301C83.4223 57.0187 89.0492 53.4551 90.9164 50.7097C91.1197 50.4119 90.641 50.1416 90.4367 50.4292C88.2249 53.5385 80.4645 57.4812 79.0039 51.7231C78.2243 48.6525 79.2498 44.9476 80.4482 42.1036C80.494 41.9959 80.314 41.9217 80.2602 42.0244Z" fill="#FBFBFB"/>
<path d="M95.7658 33.8079C95.653 30.5849 93.4697 28.1281 90.3116 27.5589C87.5348 27.0589 84.2842 27.9665 82.599 30.3389C82.1334 30.9945 81.8112 31.7436 81.6506 32.5303C81.551 33.0161 81.5856 33.4369 81.5917 33.9208C81.5998 34.615 81.4108 35.3478 81.9962 35.8865C82.3083 36.1732 82.7535 36.2718 83.1773 36.2636C84.4052 36.2392 85.5487 35.4261 86.7694 35.5572C87.1739 35.6009 87.5591 35.7473 87.9383 35.8947C89.2932 36.4242 90.6328 36.9904 91.9562 37.5941" fill="#0D0628"/>
<path d="M95.9366 33.8076C95.5147 27.7355 88.3316 25.1659 83.656 28.8667C82.5207 29.7653 81.6466 31.0521 81.3864 32.4944C81.2095 33.4712 80.9737 35.2469 81.7838 36.0508C82.4638 36.7258 83.5087 36.5306 84.335 36.3304C85.7174 35.996 86.9096 35.7886 88.2696 36.3223C89.4904 36.801 90.6562 37.3763 91.9125 37.7524C92.0924 37.8062 92.193 37.5511 92.0375 37.4545C90.6532 36.5977 88.4668 35.4369 86.8049 35.2885C85.9888 35.2153 85.321 35.5101 84.5475 35.7043C81.9891 36.3446 81.5815 34.2132 82.1304 32.1925C83.0076 28.9623 86.4146 27.4123 89.6073 27.7121C92.9533 28.0262 95.283 30.5144 95.594 33.8086C95.6164 34.0231 95.9528 34.0282 95.9366 33.8076Z" fill="#FBFBFB"/>
<path d="M89.3521 36.9453C88.0542 36.6099 85.8322 36.7329 83.7577 37.9668C82.3571 38.7993 80.9879 40.7 80.3486 42.0762C78.2121 41.7815 77.218 40.3138 76.9558 38.9406C76.6661 37.4281 77.3532 35.5396 78.7355 34.1441C80.1179 32.7485 82.1538 31.912 83.8289 32.0838C85.1878 32.223 86.8812 32.5045 88.0399 34.019" fill="#0D0628"/>
<path d="M89.3908 36.8038C86.0447 35.826 82.7352 37.8273 80.9402 40.5605C79.7978 42.3006 77.9916 41.398 77.3197 39.3936C76.7932 37.8253 77.4854 36.0689 78.4856 34.8624C80.8244 32.0398 85.2255 31.3568 87.8489 34.2099C88.0847 34.467 88.4638 34.0849 88.2311 33.8277C85.4583 30.7713 80.5276 31.3812 78.0495 34.5341C75.7483 37.4614 76.4222 41.4418 80.2877 42.2976C80.3832 42.3189 80.4991 42.2844 80.5469 42.1919C82.3449 38.6954 85.3383 36.6839 89.3512 37.0925C89.5209 37.1098 89.5453 36.8485 89.3908 36.8038Z" fill="#FBFBFB"/>
<path d="M89.7364 40.5018C89.1174 41.5649 87.859 42.2652 86.6556 42.2164C86.2337 42.1992 85.8262 42.0985 85.4287 41.9837C83.9783 41.5639 82.6173 41.1116 81.9017 39.7476C81.6171 41.0506 81.6517 42.4655 81.8661 43.7777C81.9505 44.294 82.0725 44.8155 82.3459 45.2617C82.8348 46.0636 83.7679 46.5251 84.703 46.6135C85.6381 46.7009 86.5763 46.456 87.4453 46.0972C88.474 45.6723 89.464 45.0604 90.0982 44.1456C90.7325 43.2308 90.9469 41.9705 90.4235 40.9886" fill="#0D0628"/>
<path d="M89.5716 40.4055C87.8183 42.9212 83.5909 42.0399 82.1059 39.628C82.0073 39.4674 81.7126 39.4755 81.6739 39.6849C81.1108 42.724 81.4249 47.2257 85.5425 46.8741C88.3824 46.6311 92.0151 44.1307 90.6866 40.9147C90.5535 40.5936 90.0239 40.7338 90.1581 41.0601C91.3178 43.8685 88.2096 45.9613 85.7824 46.2734C81.924 46.7704 81.6221 42.6447 82.1303 39.8099C81.986 39.8292 81.8427 39.8475 81.6983 39.8668C83.3978 42.5898 87.9677 43.4762 89.9019 40.5987C90.0381 40.3933 89.7109 40.2063 89.5716 40.4055Z" fill="#FBFBFB"/>
<path d="M84.6125 37.5947C85.0679 36.6962 86.9127 35.6412 87.921 35.6463C88.9293 35.6513 89.8939 36.1179 90.6593 36.7735C91.6107 37.5866 91.88 39.9691 91.7733 41.2325C91.634 42.8934 89.901 43.1546 88.5278 42.9971C87.2024 42.8456 85.6066 42.9859 84.6735 41.8221C85.2041 41.7153 85.5273 41.3647 85.8516 40.9347C86.5204 40.0484 86.2063 38.0826 84.6125 37.5947Z" fill="#0D0628"/>
<path d="M84.7498 37.6741C85.7276 36.185 87.852 35.4522 89.4661 36.246C91.0405 37.0195 91.444 38.473 91.5437 40.1145C91.5863 40.826 91.6341 41.6808 91.0832 42.2297C90.5679 42.743 89.6887 42.805 89.0158 42.7938C87.6121 42.7714 85.8547 42.7257 84.8423 41.6534C84.8078 41.7855 84.7722 41.9176 84.7376 42.0498C87.0673 41.258 86.7735 38.2372 84.6746 37.3712C84.4032 37.2594 84.2762 37.7086 84.5516 37.8154C86.2409 38.4669 86.5276 40.9388 84.6116 41.5914C84.4419 41.6493 84.3799 41.8536 84.5069 41.9878C85.7215 43.2736 88.2026 43.4677 89.8726 43.2238C91.8008 42.9422 92.1495 41.4806 91.9797 39.7537C91.7947 37.8611 91.13 36.3497 89.2394 35.6727C87.4993 35.0497 85.4258 35.9553 84.4754 37.5135C84.3687 37.6903 84.6391 37.8448 84.7498 37.6741Z" fill="#FBFBFB"/>
<path d="M84.3533 46.5292C86.2753 46.2182 88.0866 44.9771 89.0827 43.2899C89.9721 41.7845 90.1683 39.9997 89.7688 38.3104C89.5594 37.4231 88.0399 34.019 88.0399 34.019C88.0399 34.019 101.482 29.5559 98.8486 43.5816C98.5274 45.2902 97.7193 46.9724 96.4244 48.2185C95.1295 49.4647 89.2891 52.9805 84.3533 46.5292Z" fill="#0D0628"/>
<path d="M84.4062 46.7214C87.053 46.204 89.3095 44.468 90.0433 41.7877C90.643 39.5983 89.9386 37.665 89.1021 35.6708C88.9578 35.3262 88.788 34.7072 88.5593 34.4023C88.1396 33.8423 88.6854 33.9246 88.1558 34.32C88.2778 34.2285 88.663 34.1441 88.8165 34.136C90.0078 34.075 91.1645 33.6644 92.3862 33.6613C97.1207 33.6512 99.1922 37.046 98.806 41.5498C98.5356 44.6987 97.32 47.7825 94.3256 49.1862C90.4225 51.0158 87.3142 49.1476 84.4906 46.3921C84.3361 46.2416 84.0616 46.4378 84.1846 46.6279C86.6698 50.474 91.4033 51.7517 95.3847 49.3987C99.0946 47.2052 100.24 41.7429 99.238 37.7738C97.9623 32.7242 92.1484 32.3329 87.9546 33.7091C87.7411 33.7792 87.6751 33.9876 87.7615 34.1828C88.3093 35.4106 88.9517 36.6537 89.3237 37.9466C90.454 41.8649 88.1284 45.3767 84.2985 46.3382C84.0505 46.4012 84.1572 46.7692 84.4062 46.7214Z" fill="#FBFBFB"/>
</svg>
