<svg width="25" height="24" viewBox="0 0 25 24" fill="none" xmlns="http://www.w3.org/2000/svg">
<path d="M4.5 22V11H2.5V5H7.7C7.61667 4.85 7.5625 4.69167 7.5375 4.525C7.5125 4.35833 7.5 4.18333 7.5 4C7.5 3.16667 7.79167 2.45833 8.375 1.875C8.95833 1.29167 9.66667 1 10.5 1C10.8833 1 11.2417 1.07083 11.575 1.2125C11.9083 1.35417 12.2167 1.55 12.5 1.8C12.7833 1.53333 13.0917 1.33333 13.425 1.2C13.7583 1.06667 14.1167 1 14.5 1C15.3333 1 16.0417 1.29167 16.625 1.875C17.2083 2.45833 17.5 3.16667 17.5 4C17.5 4.18333 17.4833 4.35417 17.45 4.5125C17.4167 4.67083 17.3667 4.83333 17.3 5H22.5V11H20.5V22H4.5ZM14.5 3C14.2167 3 13.9792 3.09583 13.7875 3.2875C13.5958 3.47917 13.5 3.71667 13.5 4C13.5 4.28333 13.5958 4.52083 13.7875 4.7125C13.9792 4.90417 14.2167 5 14.5 5C14.7833 5 15.0208 4.90417 15.2125 4.7125C15.4042 4.52083 15.5 4.28333 15.5 4C15.5 3.71667 15.4042 3.47917 15.2125 3.2875C15.0208 3.09583 14.7833 3 14.5 3ZM9.5 4C9.5 4.28333 9.59583 4.52083 9.7875 4.7125C9.97917 4.90417 10.2167 5 10.5 5C10.7833 5 11.0208 4.90417 11.2125 4.7125C11.4042 4.52083 11.5 4.28333 11.5 4C11.5 3.71667 11.4042 3.47917 11.2125 3.2875C11.0208 3.09583 10.7833 3 10.5 3C10.2167 3 9.97917 3.09583 9.7875 3.2875C9.59583 3.47917 9.5 3.71667 9.5 4ZM4.5 7V9H11.5V7H4.5ZM11.5 20V11H6.5V20H11.5ZM13.5 20H18.5V11H13.5V20ZM20.5 9V7H13.5V9H20.5Z" fill="#0D0628"/>
</svg>
