<svg width="25" height="25" viewBox="0 0 25 25" fill="none" xmlns="http://www.w3.org/2000/svg">
<path fill-rule="evenodd" clip-rule="evenodd" d="M3.09451 5.22982C2.5 6.39661 2.5 7.92403 2.5 10.9789V13.5243C2.5 16.5791 2.5 18.1066 3.09451 19.2733C3.61745 20.2997 4.45189 21.1341 5.47824 21.657C6.64503 22.2516 8.17245 22.2516 11.2273 22.2516H13.7727C16.8275 22.2516 18.355 22.2516 19.5217 21.657C20.5481 21.1341 21.3825 20.2997 21.9055 19.2733C22.5 18.1066 22.5 16.5791 22.5 13.5243V10.9789C22.5 7.92403 22.5 6.39661 21.9055 5.22982C21.3825 4.20348 20.5481 3.36904 19.5217 2.8461C18.355 2.25159 16.8275 2.25159 13.7727 2.25159H11.2273C8.17245 2.25159 6.64503 2.25159 5.47824 2.8461C4.45189 3.36904 3.61745 4.20348 3.09451 5.22982ZM13.7727 4.06977H11.2273C9.66986 4.06977 8.61114 4.07119 7.7928 4.13804C6.99567 4.20317 6.58804 4.32121 6.30367 4.46611C5.61945 4.81474 5.06315 5.37103 4.71452 6.05526C4.56963 6.33962 4.45158 6.74726 4.38645 7.54439C4.3196 8.36272 4.31818 9.42144 4.31818 10.9789V13.5243C4.31818 15.0818 4.3196 16.1404 4.38645 16.9588C4.45158 17.756 4.56963 18.1636 4.71452 18.448C5.06315 19.1321 5.61945 19.6884 6.30367 20.037C6.58804 20.1819 6.99567 20.3 7.7928 20.3651C8.61114 20.432 9.66986 20.4334 11.2273 20.4334H13.7727C15.3302 20.4334 16.3888 20.432 17.2072 20.3651C18.0044 20.3 18.412 20.1819 18.6964 20.037C19.3805 19.6884 19.9368 19.1321 20.2855 18.448C20.4304 18.1636 20.5485 17.756 20.6135 16.9588C20.6804 16.1404 20.6818 15.0818 20.6818 13.5243V10.9789C20.6818 9.42144 20.6804 8.36272 20.6135 7.54439C20.5485 6.74726 20.4304 6.33962 20.2855 6.05526C19.9368 5.37103 19.3805 4.81474 18.6964 4.46611C18.412 4.32121 18.0044 4.20317 17.2072 4.13804C16.3888 4.07119 15.3302 4.06977 13.7727 4.06977Z" fill="#0D0628"/>
<path fill-rule="evenodd" clip-rule="evenodd" d="M12.5001 18.1601C15.7632 18.1601 18.4085 15.5148 18.4085 12.2517C18.4085 8.98863 15.7632 6.34338 12.5001 6.34338C9.23705 6.34338 6.5918 8.98863 6.5918 12.2517C6.5918 15.5148 9.23705 18.1601 12.5001 18.1601ZM12.5001 16.1906C14.6755 16.1906 16.439 14.4271 16.439 12.2517C16.439 10.0763 14.6755 8.31283 12.5001 8.31283C10.3247 8.31283 8.56124 10.0763 8.56124 12.2517C8.56124 14.4271 10.3247 16.1906 12.5001 16.1906Z" fill="#0D0628"/>
<path d="M18.4083 5.35852C17.8644 5.35852 17.4236 5.7994 17.4236 6.34324C17.4236 6.88708 17.8644 7.32796 18.4083 7.32796C18.9522 7.32796 19.393 6.88708 19.393 6.34324C19.393 5.7994 18.9522 5.35852 18.4083 5.35852Z" fill="#0D0628"/>
</svg>
